<svg xmlns="http://www.w3.org/2000/svg" fill="currentColor" class="ai" viewBox="0 0 16 16"><path d="M8 1.5c-2.411 0-3.5 1.69-3.5 2.75a.75.75 0 0 1-1.5 0C3 2.31 4.811 0 8 0s5 2.31 5 4.25c0 1.366-.343 2.547-1.245 3.367a3.6 3.6 0 0 1-.506.383q.271.169.505.383c.903.82 1.246 2 1.246 3.367C13 13.977 11.098 16 8 16c-3.132 0-5-2.305-5-4.25a.75.75 0 0 1 1.5 0c0 1.055 1.132 2.75 3.5 2.75 2.402 0 3.5-1.477 3.5-2.75 0-1.134-.282-1.828-.755-2.258C10.258 9.048 9.418 8.75 8 8.75H6.25a.75.75 0 0 1 0-1.5H8c1.417 0 2.257-.298 2.746-.742.472-.43.754-1.124.754-2.258 0-1.06-1.089-2.75-3.5-2.75"/></svg>