<svg xmlns="http://www.w3.org/2000/svg" fill="currentColor" class="vi" viewBox="0 0 16 16"><path d="M6.162 1.227A7.516 7.516 0 0 0 .96 5.908a3.5 3.5 0 1 1 5.202-4.681ZM16 3.5c0 .933-.365 1.78-.96 2.408a7.516 7.516 0 0 0-5.202-4.681A3.5 3.5 0 0 1 16 3.5ZM8.75 5.75a.75.75 0 0 0-1.5 0V8.5c0 .199.079.39.22.53l1.25 1.25a.75.75 0 1 0 1.06-1.06L8.75 8.19V5.75Z"/><path d="M14.5 8.5c0 1.905-.82 3.619-2.126 4.808l1.003 1.531a.75.75 0 1 1-1.254.822l-.968-1.477A6.47 6.47 0 0 1 8 15a6.47 6.47 0 0 1-3.155-.816l-.968 1.477a.75.75 0 0 1-1.254-.822l1.003-1.531A6.5 6.5 0 1 1 14.5 8.5Zm-1.5 0a5 5 0 1 0-10 0 5 5 0 0 0 10 0Z"/></svg>