<svg xmlns="http://www.w3.org/2000/svg" fill="currentColor" class="ai" viewBox="0 0 16 16"><path d="M5.752.82A8.02 8.02 0 0 0 .599 5.458 3.5 3.5 0 0 1 5.752.82m9.649 4.638A8.02 8.02 0 0 0 10.248.82a3.5 3.5 0 0 1 5.153 4.638M8.75 5.75a.75.75 0 0 0-1.5 0V8.5c0 .199.079.39.22.53l1.25 1.25a.75.75 0 1 0 1.06-1.06L8.75 8.19z"/><path d="M15 8.5c0 2.08-.908 3.949-2.348 5.231l.725 1.108a.75.75 0 1 1-1.254.822l-.693-1.057A6.97 6.97 0 0 1 8 15.5a6.97 6.97 0 0 1-3.43-.896l-.693 1.057a.75.75 0 0 1-1.254-.822l.725-1.108A7 7 0 1 1 15 8.5m-1.5 0a5.5 5.5 0 1 0-11 0 5.5 5.5 0 0 0 11 0"/></svg>