<svg xmlns="http://www.w3.org/2000/svg" fill="currentColor" class="vi" viewBox="0 0 16 16"><path d="M3.265 1.713c.368.407.783 1.221 1.165 2.384.371 1.132.676 2.484.88 3.865.204 1.382.303 2.764.275 3.955-.03 1.224-.192 2.123-.426 2.62a1.026 1.026 0 0 0 1.854.875c.424-.897.591-2.151.622-3.447.032-1.329-.079-2.83-.296-4.302-.218-1.472-.546-2.942-.96-4.205-.404-1.231-.927-2.384-1.592-3.12a1.025 1.025 0 0 0-1.522 1.375Zm8.183 8.68c-1.077.854-2.082 1.779-2.871 2.654.03-.354.049-.71.057-1.058a23.06 23.06 0 0 0-.036-1.862 29.287 29.287 0 0 1 3.244-2.571 22.91 22.91 0 0 0 1.805.46c.342.071.692.135 1.044.186-1.033.568-2.164 1.336-3.243 2.19ZM9.731 5.767a29.261 29.261 0 0 1-1.9-.83 22.952 22.952 0 0 0-.503-1.79 16.72 16.72 0 0 0-.362-1c1.01.61 2.24 1.206 3.52 1.713 1.298.514 2.622.926 3.787 1.17 1.198.252 2.111.299 2.648.184a1.026 1.026 0 0 1 .43 2.005c-.97.208-2.23.084-3.499-.181-1.3-.273-2.737-.724-4.12-1.271Z"/></svg>