<svg xmlns="http://www.w3.org/2000/svg" fill="currentColor" class="ai" viewBox="0 0 16 16"><path fill-rule="evenodd" d="M.764 1.713c.368.407.784 1.221 1.165 2.384.371 1.132.676 2.484.88 3.865s.303 2.765.275 3.955c-.03 1.224-.192 2.123-.426 2.62a1.026 1.026 0 0 0 1.854.875c.424-.897.592-2.151.622-3.447.032-1.329-.079-2.83-.296-4.302s-.546-2.942-.96-4.205c-.404-1.231-.927-2.384-1.592-3.12A1.025 1.025 0 0 0 .764 1.713m8.184 8.68c-1.078.854-2.083 1.779-2.872 2.654.031-.354.049-.71.057-1.058a23 23 0 0 0-.036-1.862 29 29 0 0 1 3.245-2.571c.614.182 1.22.338 1.804.46q.515.108 1.044.186c-1.033.568-2.164 1.336-3.242 2.19M7.23 5.767a29 29 0 0 1-1.9-.83 23 23 0 0 0-.503-1.79c-.109-.333-.229-.67-.361-1 1.008.61 2.24 1.206 3.52 1.713 1.298.514 2.621.926 3.786 1.17 1.199.252 2.111.299 2.648.184a1.025 1.025 0 0 1 .43 2.005c-.97.208-2.23.084-3.498-.181-1.302-.273-2.738-.724-4.122-1.271"/></svg>