<svg xmlns="http://www.w3.org/2000/svg" fill="currentColor" class="ai" viewBox="0 0 16 16"><path d="M3.396.298c-.688-.2-1.452-.27-2.16-.005a.75.75 0 0 0-.387.33C.264 1.648-.005 2.985.063 4.318c.038.74.18 1.498.446 2.222A6.2 6.2 0 0 0 0 9c0 3.866 3.582 7 8 7s8-3.134 8-7c0-.866-.18-1.696-.509-2.462a6.4 6.4 0 0 1-.891 1.658.8.8 0 0 1-.148.148q.048.326.048.656c0 2.856-2.716 5.5-6.5 5.5S1.5 11.856 1.5 9q0-.331.048-.656l-.002-.001a4.9 4.9 0 0 1 .613-1.76 5.9 5.9 0 0 1-.598-2.343c-.05-.976.125-1.901.452-2.605.26-.037.58-.008.962.103.509.149 1.058.426 1.585.776a8.3 8.3 0 0 1 1.468 1.244 7.6 7.6 0 0 1 2.253-.253 7.6 7.6 0 0 1 1.691.253l.106-.113a8.3 8.3 0 0 1 1.362-1.131c.527-.35 1.076-.627 1.584-.776.382-.111.703-.14.963-.103.327.704.502 1.629.451 2.605a5.9 5.9 0 0 1-.598 2.343c.315.543.526 1.135.614 1.76a.8.8 0 0 0 .146-.147c.856-1.14 1.268-2.541 1.337-3.88.068-1.332-.201-2.67-.786-3.692a.75.75 0 0 0-.388-.33c-.707-.266-1.471-.197-2.16.004-.694.203-1.382.56-1.993.967-.4.265-.776.558-1.112.858a9.2 9.2 0 0 0-2.996 0 10 10 0 0 0-1.112-.858C4.779.859 4.09.5 3.396.298"/><path d="M4.67 8.335c.224-.447.936-.447 1.16 0a.75.75 0 0 0 1.34-.67c-.776-1.553-3.064-1.553-3.84 0a.75.75 0 0 0 1.34.67m6.66 0c-.224-.447-.936-.447-1.16 0a.75.75 0 1 1-1.34-.67c.776-1.553 3.064-1.553 3.84 0a.75.75 0 1 1-1.34.67M7.134 10.75l.433.75a.5.5 0 0 0 .866 0l.433-.75a.5.5 0 0 0-.433-.75h-.866a.5.5 0 0 0-.433.75"/></svg>