<svg xmlns="http://www.w3.org/2000/svg" fill="currentColor" class="ai" viewBox="0 0 16 16"><path d="M2.75 3.5h4.87L5.972 5H2.75c-.69 0-1.25.56-1.25 1.25v3.5c0 .69.56 1.25 1.25 1.25h1.701l-.03.074c-.198.471-.175.989.032 1.426H2.75A2.75 2.75 0 0 1 0 9.75v-3.5A2.75 2.75 0 0 1 2.75 3.5m9.5 7.5H9.46l-1.65 1.5h4.44a2.75 2.75 0 0 0 2.705-2.25h.295A.75.75 0 0 0 16 9.5v-3a.75.75 0 0 0-.75-.75h-.295A2.75 2.75 0 0 0 12.25 3.5h-1.272c.203.428.23.934.044 1.399l-.04.101h1.268c.69 0 1.25.56 1.25 1.25v3.5c0 .69-.56 1.25-1.25 1.25"/><path d="M9.824 3.634a.75.75 0 0 1 .27.894L9.106 7h1.324a.75.75 0 0 1 .505 1.305l-4.397 4a.75.75 0 0 1-1.196-.845L6.373 9H5a.75.75 0 0 1-.505-1.305l4.397-4a.75.75 0 0 1 .932-.061"/></svg>