<svg xmlns="http://www.w3.org/2000/svg" fill="currentColor" class="ai" viewBox="0 0 16 16"><path d="M2.75 3.5h3.668a1.74 1.74 0 0 0-.168.75V5h-3.5c-.69 0-1.25.56-1.25 1.25v3.5c0 .69.56 1.25 1.25 1.25h3.313a2 2 0 0 0 .205 1.5H2.75A2.75 2.75 0 0 1 0 9.75v-3.5A2.75 2.75 0 0 1 2.75 3.5m9.5 7.5H9.937a2 2 0 0 1-.205 1.5h2.518a2.75 2.75 0 0 0 2.705-2.25h.295A.75.75 0 0 0 16 9.5v-3a.75.75 0 0 0-.75-.75h-.295A2.75 2.75 0 0 0 12.25 3.5H9.582c.108.227.168.482.168.75V5h2.5c.69 0 1.25.56 1.25 1.25v3.5c0 .69-.56 1.25-1.25 1.25M8 3.5a.75.75 0 0 1 .75.75v4.5a.75.75 0 0 1-1.5 0v-4.5A.75.75 0 0 1 8 3.5m1 8a1 1 0 1 1-2 0 1 1 0 0 1 2 0"/></svg>