<svg xmlns="http://www.w3.org/2000/svg" fill="currentColor" class="ai" viewBox="0 0 16 16"><path d="M1.28.22A.75.75 0 1 0 .22 1.28l2.235 2.236A2.75 2.75 0 0 0 0 6.25v3.5a2.75 2.75 0 0 0 2.75 2.75h8.69l3.28 3.28a.75.75 0 1 0 1.06-1.06zM9.94 11H2.75c-.69 0-1.25-.56-1.25-1.25v-3.5C1.5 5.56 2.06 5 2.75 5h1.19zm3.56-1.25c0 .2-.047.39-.131.558l1.086 1.086c.247-.332.422-.72.5-1.144h.295A.75.75 0 0 0 16 9.5v-3a.75.75 0 0 0-.75-.75h-.295A2.75 2.75 0 0 0 12.25 3.5H6.56L8.06 5h4.19c.69 0 1.25.56 1.25 1.25z"/></svg>