<svg xmlns="http://www.w3.org/2000/svg" fill="currentColor" class="ai" viewBox="0 0 16 16"><path d="M6 5.25a.75.75 0 0 0-1.5 0v5.5a.75.75 0 0 0 1.5 0zm3.5 0a.75.75 0 0 0-1.5 0v5.5a.75.75 0 0 0 1.5 0z"/><path d="M3 0a2 2 0 0 0-2 2v11a3 3 0 0 0 3 3h6a3 3 0 0 0 3-3v-.53l2.246-1.555A1.75 1.75 0 0 0 16 9.476V5.75A1.75 1.75 0 0 0 14.25 4H13V2a2 2 0 0 0-2-2zm8 1.5a.5.5 0 0 1 .5.5v11a1.5 1.5 0 0 1-1.5 1.5H4A1.5 1.5 0 0 1 2.5 13V2a.5.5 0 0 1 .5-.5zm3.392 8.182L13 10.645V5.5h1.25a.25.25 0 0 1 .25.25v3.726a.25.25 0 0 1-.108.206"/></svg>