<svg xmlns="http://www.w3.org/2000/svg" fill="currentColor" class="ai" viewBox="0 0 16 16"><path d="M9.295 6.823c0-.63-.444-.977-1.224-.977H6.636v2.027h1.21c.934-.003 1.45-.378 1.45-1.05Zm5.225-.365c-.27-.88-.31-1.958-.28-2.793C14.273 2.797 13.595 2 12.684 2h-9.36c-.914 0-1.59.8-1.558 1.665.029.835-.008 1.914-.279 2.793C1.213 7.341.754 7.898 0 7.97v.811c.752.072 1.213.63 1.486 1.512.27.88.31 1.959.28 2.793-.032.868.645 1.666 1.556 1.666h9.358c.914 0 1.589-.8 1.558-1.666-.029-.834.008-1.913.279-2.793.273-.882.731-1.44 1.483-1.511V7.97c-.749-.071-1.21-.63-1.48-1.512Zm-6.173 5.31H5.56V4.984h2.773c1.233 0 2.041.666 2.041 1.69 0 .721-.543 1.364-1.238 1.475v.037c.945.103 1.58.758 1.58 1.66 0 1.199-.891 1.922-2.369 1.922Zm-.284-3.095H6.636v2.232h1.49c.973 0 1.488-.39 1.488-1.124 0-.732-.53-1.108-1.551-1.108Z"/></svg>