<svg xmlns="http://www.w3.org/2000/svg" fill="currentColor" class="ai" viewBox="0 0 16 16"><path d="M5 9a1 1 0 1 1-2 0 1 1 0 0 1 2 0m7 1a1 1 0 1 0 0-2 1 1 0 0 0 0 2"/><path d="m13.575 5.519-.695-2.505A2.75 2.75 0 0 0 10.23 1H5.77a2.75 2.75 0 0 0-2.65 2.014l-.695 2.505A2.75 2.75 0 0 0 0 8.25v6a.75.75 0 0 0 1.5 0V12.5h13v1.75a.75.75 0 0 0 1.5 0v-6a2.75 2.75 0 0 0-2.425-2.731M5.77 2.5h4.46a1.25 1.25 0 0 1 1.204.915l.58 2.085H3.986l.579-2.085A1.25 1.25 0 0 1 5.77 2.5M14.5 11h-13V8.25C1.5 7.56 2.06 7 2.75 7h10.5c.69 0 1.25.56 1.25 1.25z"/></svg>