<svg xmlns="http://www.w3.org/2000/svg" fill="currentColor" class="vi" viewBox="0 0 16 16"><path d="M5 6v4a1 1 0 0 0 1 1h4a1 1 0 0 0 1-1V6a1 1 0 0 0-1-1H6a1 1 0 0 0-1 1Zm1.5 3.5v-3h3v3h-3Z"/><path d="M5 0a.75.75 0 0 1 .75.75V2h1.5V.75a.75.75 0 0 1 1.5 0V2h1.5V.75a.75.75 0 0 1 1.5 0v1.345a3.005 3.005 0 0 1 2.155 2.155h1.345a.75.75 0 0 1 0 1.5H14v1.5h1.25a.75.75 0 0 1 0 1.5H14v1.5h1.25a.75.75 0 0 1 0 1.5h-1.345a3.005 3.005 0 0 1-2.155 2.155v1.345a.75.75 0 0 1-1.5 0V14h-1.5v1.25a.75.75 0 0 1-1.5 0V14h-1.5v1.25a.75.75 0 0 1-1.5 0v-1.345a3.005 3.005 0 0 1-2.155-2.155H.75a.75.75 0 0 1 0-1.5H2v-1.5H.75a.75.75 0 0 1 0-1.5H2v-1.5H.75a.75.75 0 0 1 0-1.5h1.345A3.005 3.005 0 0 1 4.25 2.095V.75A.75.75 0 0 1 5 0Zm6 3.5H5A1.5 1.5 0 0 0 3.5 5v6A1.5 1.5 0 0 0 5 12.5h6a1.5 1.5 0 0 0 1.5-1.5V5A1.5 1.5 0 0 0 11 3.5Z"/></svg>