<svg xmlns="http://www.w3.org/2000/svg" fill="currentColor" class="ai" viewBox="0 0 16 16"><path d="M3.796 1.35A1.75 1.75 0 0 1 5.5 0h5c.83 0 1.524.577 1.704 1.35A2.5 2.5 0 0 1 14 3.75v9.5A2.75 2.75 0 0 1 11.25 16h-6.5A2.75 2.75 0 0 1 2 13.25v-9.5c0-1.136.758-2.095 1.796-2.4m.03 1.661a1 1 0 0 0-.326.739v9.5c0 .69.56 1.25 1.25 1.25h6.5c.69 0 1.25-.56 1.25-1.25v-9.5a1 1 0 0 0-.326-.739A1.75 1.75 0 0 1 10.5 4.25h-5a1.75 1.75 0 0 1-1.674-1.239M5.5 1.5a.25.25 0 0 0-.25.25v.75c0 .138.112.25.25.25h5a.25.25 0 0 0 .25-.25v-.75a.25.25 0 0 0-.25-.25z"/></svg>