<svg xmlns="http://www.w3.org/2000/svg" fill="currentColor" class="ai" viewBox="0 0 16 16"><path d="M12.225.398A6.011 6.011 0 0 0 10.06 0a6.06 6.06 0 0 0-6.052 6.372c.47-.182.97-.302 1.492-.35A4.561 4.561 0 0 1 9.545 1.53a4.893 4.893 0 0 0-1.363 3.395 4.9 4.9 0 0 0 .288 1.66c.271.137.53.296.773.473a5.02 5.02 0 0 1 1.155-.041 3.41 3.41 0 0 1 2.692-5.5c.283 0 .485-.401.248-.554a6.061 6.061 0 0 0-1.113-.564Zm3.241 8.406a6.063 6.063 0 0 1-.447.742 3.981 3.981 0 0 0-.906-.389 5.028 5.028 0 0 0-.727-.836 3.36 3.36 0 0 0 .713-.14h.003a3.4 3.4 0 0 0 .266-.095c.502-.203 1.344.235 1.098.718ZM3.75 16H13a3 3 0 0 0 .487-5.96 3.997 3.997 0 0 0-4.504-1.91A4.484 4.484 0 0 0 6 7c-1.443 0-2.725.68-3.547 1.73A3.75 3.75 0 0 0 3.75 16Zm10.75-3a1.5 1.5 0 0 1-1.5 1.5H3.75a2.25 2.25 0 0 1-.366-4.47 3 3 0 0 1 5.185-.08 2.5 2.5 0 0 1 3.899 1.647 1.497 1.497 0 0 1 .592-.096A1.5 1.5 0 0 1 14.5 13Z"/></svg>