<svg xmlns="http://www.w3.org/2000/svg" fill="currentColor" class="ai" viewBox="0 0 16 16"><path d="M16 7a3.502 3.502 0 0 0-2.447-3.339 3.998 3.998 0 0 0-4.57-2.03 4.5 4.5 0 0 0-7.258 1.963A3.75 3.75 0 0 0 3.75 10.5h8.749A3.5 3.5 0 0 0 16 7Zm-6-4a2.5 2.5 0 0 1 2.45 2h.05a2 2 0 1 1 0 4H3.75a2.25 2.25 0 0 1-.726-4.38 3 3 0 0 1 5.545-1.17A2.501 2.501 0 0 1 10 3Zm-7 9.5a1 1 0 1 1-2 0 1 1 0 0 1 2 0ZM5.5 15a1 1 0 1 1-2 0 1 1 0 0 1 2 0ZM7 13.5a1 1 0 1 0 0-2 1 1 0 0 0 0 2Zm3.5 1.5a1 1 0 1 1-2 0 1 1 0 0 1 2 0Zm1.5-1.5a1 1 0 1 0 0-2 1 1 0 0 0 0 2Zm3.5 1.5a1 1 0 1 1-2 0 1 1 0 0 1 2 0Z"/></svg>