<svg xmlns="http://www.w3.org/2000/svg" fill="currentColor" class="ai" viewBox="0 0 16 16"><path d="M13.553 3.161A3.502 3.502 0 0 1 12.5 10H9.955l.517-.804c.14-.217.226-.454.26-.696H12.5a2 2 0 1 0 0-4h-.05a2.5 2.5 0 0 0-3.881-1.55A3 3 0 0 0 6 1.5a3 3 0 0 0-2.976 2.62A2.251 2.251 0 0 0 3.75 8.5h2.307L4.342 10H3.75a3.75 3.75 0 0 1-2.026-6.906 4.5 4.5 0 0 1 7.259-1.963 4 4 0 0 1 4.57 2.03"/><path d="M9.63 8.656a.75.75 0 0 0-1.124-.97l-4 3.5A.75.75 0 0 0 5 12.5h2.376L5.87 14.844a.75.75 0 0 0 1.125.97l4-3.5A.75.75 0 0 0 10.5 11H8.124z"/></svg>