<svg xmlns="http://www.w3.org/2000/svg" fill="currentColor" class="ai" viewBox="0 0 16 16"><path d="M13.5 6.5c0 1.243-2.462 2.25-5.5 2.25S2.5 7.743 2.5 6.5 4.962 4.25 8 4.25s5.5 1.007 5.5 2.25Zm-2.179-.203C10.547 5.981 9.373 5.75 8 5.75c-1.373 0-2.547.23-3.321.547-.172.07-.311.14-.42.203.109.063.248.132.42.203.774.316 1.948.547 3.321.547 1.373 0 2.547-.23 3.321-.547.172-.07.311-.14.42-.203a3.464 3.464 0 0 0-.42-.203Z"/><path d="M0 10V6.5C0 4.015 3.582 2 8 2s8 2.015 8 4.5V10c0 2.21-3.582 4-8 4s-8-1.79-8-4Zm14.5-3.5c0-.46-.347-1.182-1.579-1.875C11.738 3.96 10.002 3.5 8 3.5c-2 0-3.737.46-4.921 1.125C1.847 5.318 1.5 6.04 1.5 6.5c0 .46.347 1.182 1.579 1.875C4.263 9.04 5.999 9.5 8 9.5c2 0 3.737-.46 4.921-1.125C14.153 7.682 14.5 6.96 14.5 6.5Zm0 2.624a7.537 7.537 0 0 1-1.75.997V11.6c.08-.037.16-.074.236-.112C14.274 10.843 14.5 10.23 14.5 10v-.876Zm-3.25 2.99v-1.5c-.776.193-1.617.32-2.5.366v1.5a12.884 12.884 0 0 0 2.5-.366Zm-4 .367v-1.5a12.865 12.865 0 0 1-3-.505v1.498c.864.266 1.883.45 3 .507Zm-4.5-1.134V9.896a7.082 7.082 0 0 1-1.25-.772V10c0 .214.194.756 1.25 1.347Z"/></svg>