<svg xmlns="http://www.w3.org/2000/svg" fill="currentColor" class="ai" viewBox="0 0 16 16"><path d="M11 3c0 .894-.391 1.697-1.012 2.247l1.157 2.266a5.5 5.5 0 0 1-1.336.683L8.652 5.929a3 3 0 0 1-1.304 0L5.733 9.094C6.44 9.356 7.203 9.5 8 9.5c1.934 0 3.67-.844 4.861-2.185.275-.31.74-.395 1.079-.157.34.237.424.708.155 1.024A7.98 7.98 0 0 1 8 11c-1.043 0-2.039-.2-2.952-.562l-2.63 5.153a.75.75 0 0 1-1.336-.682l2.63-5.154a8 8 0 0 1-1.807-1.573c-.269-.316-.184-.787.156-1.024.339-.238.803-.152 1.078.157.37.417.793.786 1.258 1.096l1.615-3.164A3 3 0 1 1 11 3M9.5 3a1.5 1.5 0 1 0-3 0 1.5 1.5 0 0 0 3 0m1.909 8.332 2.173 4.259a.75.75 0 0 0 1.336-.682l-2.173-4.26q-.636.395-1.336.683"/></svg>