<svg xmlns="http://www.w3.org/2000/svg" fill="currentColor" class="ai" viewBox="0 0 16 16"><path d="M11.128 6.088c.412.604.718 1.273.906 1.979l.228.855a4.41 4.41 0 0 1-.5 3.441c-1.722 2.809-5.802 2.809-7.523 0a4.411 4.411 0 0 1-.501-3.441l.228-.855a6.474 6.474 0 0 1 .906-1.98L8 1.5l3.128 4.588ZM9.24.655a1.5 1.5 0 0 0-2.478 0L3.633 5.243A7.973 7.973 0 0 0 2.516 7.68l-.228.855a5.912 5.912 0 0 0 .672 4.612c2.306 3.763 7.774 3.763 10.08 0a5.911 5.911 0 0 0 .672-4.612l-.228-.855a7.974 7.974 0 0 0-1.117-2.437L9.24.655Z"/></svg>