<svg xmlns="http://www.w3.org/2000/svg" fill="currentColor" class="vi" viewBox="0 0 16 16"><path d="M15 1.5V12c-1.969.719-2.563 1-3.719 1-1.969 0-2.719-1-4.687-1-.625 0-1.125.125-1.594.25v-2c.469-.125.969-.25 1.594-.25 1.968 0 2.718 1 4.687 1 .625 0 1.094-.094 1.719-.281v-6.5c-.625.187-1.094.281-1.719.281-1.969 0-2.719-1-4.687-1C5 3.5 4.25 4.156 3 4.406V14c0 .563-.438 1-1 1-.563 0-1-.438-1-1V2c0-.563.438-1 1-1 .563 0 1 .438 1 1v.406c1.25-.25 2-.906 3.594-.906 1.968 0 2.718 1 4.687 1 1.156 0 1.75-.281 3.719-1Z"/></svg>