<svg xmlns="http://www.w3.org/2000/svg" fill="currentColor" class="ai" viewBox="0 0 16 16"><path d="M3.75 6h.75v-.75a.75.75 0 0 1 1.5 0V6h.75a.75.75 0 0 1 0 1.5H6v.75a.75.75 0 0 1-1.5 0V7.5h-.75a.75.75 0 0 1 0-1.5M11 6a1 1 0 1 1-2 0 1 1 0 0 1 2 0m1 3a1 1 0 1 0 0-2 1 1 0 0 0 0 2"/><path d="M.79 5.103a5.09 5.09 0 0 1 3.294-3.464A12.4 12.4 0 0 1 8 1c1.325 0 2.659.22 3.916.639a5.09 5.09 0 0 1 3.294 3.464l.222.813c.377 1.383.568 2.81.568 4.244v1.525a3.314 3.314 0 0 1-6.36 1.306L9.213 12a.83.83 0 0 0-.758-.5h-.912a.83.83 0 0 0-.758.5l-.425.991A3.315 3.315 0 0 1 0 11.685V10.16C0 8.727.191 7.3.568 5.916zm12.973.395a3.59 3.59 0 0 0-2.322-2.436A11 11 0 0 0 8 2.5c-1.161 0-2.335.193-3.441.562a3.59 3.59 0 0 0-2.322 2.436l-.221.812a14.6 14.6 0 0 0-.516 3.85v1.525a1.814 1.814 0 0 0 3.482.715l.425-.99A2.33 2.33 0 0 1 7.544 10h.912c.93 0 1.77.554 2.137 1.41l.425.99a1.814 1.814 0 0 0 3.482-.715V10.16c0-1.3-.173-2.595-.516-3.85z"/></svg>