<svg xmlns="http://www.w3.org/2000/svg" fill="currentColor" class="ai" viewBox="0 0 16 16"><path fill-rule="evenodd" d="M16 8A8 8 0 1 1 0 8a8 8 0 0 1 16 0Zm-5.515-6.008a6.506 6.506 0 0 1 3.972 5.258h-2.97c-.053-1.617-.277-3.112-.64-4.287a8.116 8.116 0 0 0-.362-.971Zm-4.97 0A6.506 6.506 0 0 0 1.543 7.25h2.97c.053-1.617.278-3.112.64-4.287.102-.333.221-.662.362-.971Zm.498 5.258C6.128 4.013 6.973 1.5 8 1.5c1.027 0 1.872 2.513 1.987 5.75H6.013Zm-1.5 1.5h-2.97a6.506 6.506 0 0 0 3.972 5.258c-.14-.31-.26-.638-.363-.97-.361-1.176-.586-2.671-.64-4.288Zm5.972 5.258a6.506 6.506 0 0 0 3.972-5.258h-2.97c-.053 1.617-.277 3.112-.64 4.287a8.116 8.116 0 0 1-.362.971ZM9.987 8.75C9.872 11.987 9.027 14.5 8 14.5c-1.027 0-1.872-2.513-1.987-5.75h3.974Z"/><path d="M16 8A8 8 0 1 1 0 8a8 8 0 0 1 16 0Zm-5.515-6.008c.14.31.26.638.363.97.361 1.176.586 2.671.64 4.288h2.97a6.506 6.506 0 0 0-3.973-5.258Zm-4.97 0A6.506 6.506 0 0 0 1.543 7.25h2.97c.053-1.617.278-3.112.64-4.287.102-.333.221-.662.362-.971Zm.498 5.258h3.974C9.872 4.013 9.027 1.5 8 1.5c-1.027 0-1.872 2.513-1.987 5.75Zm-1.5 1.5h-2.97a6.506 6.506 0 0 0 3.972 5.258c-.14-.31-.26-.638-.363-.97-.361-1.176-.586-2.671-.64-4.288Zm5.972 5.258a6.506 6.506 0 0 0 3.972-5.258h-2.97c-.053 1.617-.277 3.112-.64 4.287a8.116 8.116 0 0 1-.362.971ZM9.987 8.75H6.013c.115 3.237.96 5.75 1.987 5.75 1.027 0 1.872-2.513 1.987-5.75Z"/></svg>