<svg xmlns="http://www.w3.org/2000/svg" fill="currentColor" class="vi" viewBox="0 0 16 16"><path d="M8.946 3.02a2.5 2.5 0 1 0-2.77 1.959c.11.51.087 1.008-.015 1.468a3.985 3.985 0 0 1-.715 1.549 4.012 4.012 0 0 0-.545-.298A2.501 2.501 0 0 0 2.5 4.5a2.5 2.5 0 0 0-.49 4.952c.166 1.425-.038 2.854-.916 4.434A.75.75 0 0 0 1.75 15h12.5a.75.75 0 0 0 .53-1.28c-.253-.253-.654-1.006-.885-2.347-.156-.91-.225-2.045-.129-3.387a2.5 2.5 0 1 0-2.74-2.849c-.658-.988-1.378-1.665-2.08-2.117ZM7.5 2.5a1 1 0 1 1-2 0 1 1 0 0 1 2 0Zm.154 2.218c.201-.105.387-.236.552-.39.632.422 1.32 1.121 1.947 2.26-.696.726-1.3 1.742-1.75 2.889a13.073 13.073 0 0 0-.704 2.516c-.272-1.216-.694-2.184-1.195-2.921a5.44 5.44 0 0 0 1.122-2.3 4.968 4.968 0 0 0 .028-2.054Zm4.63 2.967c-.124 1.536-.053 2.859.133 3.942.122.712.298 1.345.515 1.873H9.025c.083-1.246.367-2.443.773-3.474.492-1.25 1.137-2.191 1.755-2.694.047-.039.093-.074.139-.106.172.181.372.336.593.46ZM3.502 9.292a2.5 2.5 0 0 0 .541-.324c.325.113.645.286.913.548.62.704 1.244 1.972 1.477 3.984H2.94a8.39 8.39 0 0 0 .56-4.208ZM14.5 5.5a1 1 0 1 1-2 0 1 1 0 0 1 2 0ZM2.5 8a1 1 0 1 1 0-2 1 1 0 0 1 0 2Z"/></svg>