<svg xmlns="http://www.w3.org/2000/svg" fill="currentColor" class="vi" viewBox="0 0 16 16"><path d="M15.533 3.62a.165.165 0 0 0-.008-.022.264.264 0 0 0-.017-.039.188.188 0 0 0-.017-.022.298.298 0 0 0-.022-.03l-.024-.018a.276.276 0 0 0-.028-.021l-3.009-1.732a.25.25 0 0 0-.25 0L9.15 3.469a.25.25 0 0 0-.028.021.24.24 0 0 0-.024.02.258.258 0 0 0-.023.028l-.017.022a.303.303 0 0 0-.016.04c-.002.007-.006.013-.009.02a.253.253 0 0 0-.008.066v3.288L6.518 8.418V1.983a.244.244 0 0 0-.009-.066L6.5 1.896a.26.26 0 0 0-.016-.039c-.004-.008-.011-.014-.017-.022a.292.292 0 0 0-.022-.03.295.295 0 0 0-.025-.018.304.304 0 0 0-.027-.022L3.383.033a.25.25 0 0 0-.25 0L.126 1.765a.203.203 0 0 0-.027.022.244.244 0 0 0-.025.019.255.255 0 0 0-.022.029c-.006.008-.013.014-.017.022a.246.246 0 0 0-.016.039.203.203 0 0 0-.01.02.256.256 0 0 0-.008.067v10.303a.25.25 0 0 0 .125.217l6.016 3.464a.281.281 0 0 0 .041.016c.007.003.013.007.02.009a.248.248 0 0 0 .128 0l.017-.007a.275.275 0 0 0 .044-.018l6.017-3.464a.25.25 0 0 0 .125-.217v-3.29l2.883-1.66a.25.25 0 0 0 .125-.218V3.685a.266.266 0 0 0-.008-.065ZM3.258.54l2.506 1.442-2.506 1.443L.753 1.983 3.258.54Zm2.758 1.875v6.291l-1.454.837-1.053.607V3.86l1.454-.838 1.053-.607Zm0 12.9L.501 12.14V2.416l1.053.606 1.454.837v6.725c0 .01.002.019.004.028 0 .012.002.025.005.037l.011.028c.004.01.008.021.014.031a.271.271 0 0 0 .018.024l.02.027c.008.007.017.012.025.018a.276.276 0 0 0 .027.02l2.88 1.631.004 2.886Zm.25-3.318L3.764 10.58l2.628-1.512 2.883-1.66 2.504 1.441L9.942 9.9l-3.676 2.098Zm5.767.142-5.516 3.177V12.43l4.085-2.331 1.43-.817v2.856Zm0-3.722-1.053-.604-1.454-.838V4.118l1.052.607 1.455.838v2.854Zm.25-3.29L9.776 3.684l2.507-1.443 2.505 1.442-2.505 1.444Zm.25 3.29V5.563l1.457-.838 1.052-.607v2.856l-2.51 1.443Z"/></svg>