<svg xmlns="http://www.w3.org/2000/svg" fill="currentColor" class="ai" viewBox="0 0 16 16"><path d="M2.75 0A2.75 2.75 0 0 0 0 2.75v6.5A2.75 2.75 0 0 0 2.75 12H3v-1.5h-.25c-.69 0-1.25-.56-1.25-1.25v-6.5c0-.69.56-1.25 1.25-1.25h6.5c.69 0 1.25.56 1.25 1.25V3H12v-.25A2.75 2.75 0 0 0 9.25 0z"/><path d="M4 6.75A2.75 2.75 0 0 1 6.75 4h6.5A2.75 2.75 0 0 1 16 6.75v5.5a.75.75 0 0 1-.22.53l-3 3a.75.75 0 0 1-.53.22h-5.5A2.75 2.75 0 0 1 4 13.25zM6.75 5.5c-.69 0-1.25.56-1.25 1.25v6.5c0 .69.56 1.25 1.25 1.25h4.75v-2.25a.75.75 0 0 1 .75-.75h2.25V6.75c0-.69-.56-1.25-1.25-1.25z"/></svg>