<svg xmlns="http://www.w3.org/2000/svg" fill="currentColor" class="ai" viewBox="0 0 16 16"><path d="M4.75 4a.75.75 0 1 0 0 1.5h6.5a.75.75 0 0 0 0-1.5zm0 3a.75.75 0 1 0 0 1.5h5a.75.75 0 0 0 0-1.5z"/><path d="M3.75 1A2.75 2.75 0 0 0 1 3.75v6.5A2.75 2.75 0 0 0 3.75 13h.79l2.155 2.414a1.75 1.75 0 0 0 2.61 0L11.461 13h1.789A1.75 1.75 0 0 0 15 11.25v-7.5A2.75 2.75 0 0 0 12.25 1zM2.5 3.75c0-.69.56-1.25 1.25-1.25h8.5c.69 0 1.25.56 1.25 1.25v7.5a.25.25 0 0 1-.25.25h-2.125a.75.75 0 0 0-.56.25l-2.379 2.665a.25.25 0 0 1-.372 0l-2.38-2.664a.75.75 0 0 0-.559-.251H3.75c-.69 0-1.25-.56-1.25-1.25z"/></svg>