<svg xmlns="http://www.w3.org/2000/svg" fill="currentColor" class="ai" viewBox="0 0 16 16"><path d="M15.071.929c-.603-.603-1.771-.54-3.224.055a8.02 8.02 0 0 1 1.519 1.082c.12-.025.229-.042.327-.051.142-.014.236-.01.294-.002a1.34 1.34 0 0 1-.002.294 2.87 2.87 0 0 1-.051.327 6.025 6.025 0 0 1-.374 1.113 7 7 0 1 0-9.813 9.813c-.609.263-1.093.393-1.44.425-.142.014-.236.01-.294.002a1.348 1.348 0 0 1 .002-.294c.009-.098.026-.207.051-.327a8.026 8.026 0 0 1-1.082-1.52C.389 13.3.326 14.469.929 15.072c.603.603 1.771.54 3.224-.055.369-.15.755-.335 1.156-.552a7 7 0 0 0 9.155-9.155c1.072-1.98 1.363-3.624.607-4.38Zm-2.306 4.323c-.789 1.29-1.928 2.74-3.35 4.162-1.424 1.423-2.873 2.562-4.163 3.351a5.5 5.5 0 1 1 7.513-7.513ZM7.004 13.41a26.094 26.094 0 0 0 3.47-2.935 26.097 26.097 0 0 0 2.936-3.471 5.5 5.5 0 0 1-6.406 6.406Zm6.968-11.469a.03.03 0 0 1-.004-.008l.004.008Z"/></svg>