<svg xmlns="http://www.w3.org/2000/svg" fill="currentColor" class="ai" viewBox="0 0 16 16"><path d="M13.069 5.537a16.44 16.44 0 0 0-.507-.159c.029-.116.054-.231.079-.347.384-1.862.13-3.36-.722-3.853-.822-.472-2.163.019-3.519 1.2a8.578 8.578 0 0 0-.39.36 9.45 9.45 0 0 0-.26-.241C6.328 1.234 4.903.703 4.05 1.2c-.819.475-1.062 1.884-.719 3.647.035.175.072.347.116.522a8.62 8.62 0 0 0-.581.184C1.196 6.131 0 7.043 0 7.987c0 .975 1.275 1.954 3.01 2.547.14.047.28.094.424.135a11.25 11.25 0 0 0-.125.562c-.328 1.735-.072 3.11.747 3.582C4.9 15.3 6.32 14.8 7.7 13.59c.11-.097.219-.197.328-.303.138.134.281.262.425.387 1.338 1.15 2.66 1.616 3.475 1.144.844-.488 1.119-1.966.763-3.766a18.55 18.55 0 0 0-.094-.422c.1-.028.197-.06.294-.09C14.694 9.944 16 8.978 16 7.987c0-.946-1.231-1.865-2.931-2.45ZM8.84 2.884c1.162-1.012 2.247-1.409 2.74-1.125.528.303.732 1.528.4 3.138a5.01 5.01 0 0 1-.072.312 16 16 0 0 0-2.103-.33 15.788 15.788 0 0 0-1.331-1.66c.122-.116.24-.225.366-.335ZM5.225 9.61c.16.272.322.544.494.81a14.15 14.15 0 0 1-1.45-.235c.137-.45.31-.915.51-1.39.143.275.29.547.446.815Zm-.947-3.76c.45-.1.928-.181 1.425-.244-.166.26-.328.525-.481.794-.153.266-.303.537-.444.812a14.902 14.902 0 0 1-.5-1.362Zm.856 2.153A18.85 18.85 0 0 1 6.565 5.52a19.598 19.598 0 0 1 2.87 0 21.302 21.302 0 0 1 1.438 2.472 20.763 20.763 0 0 1-1.432 2.493c-.466.035-.95.05-1.441.05-.49 0-.966-.015-1.425-.043a19.008 19.008 0 0 1-1.44-2.488Zm5.644 1.6c.16-.275.31-.553.456-.834.2.453.375.912.528 1.384-.484.11-.975.194-1.468.25.168-.262.328-.531.484-.8Zm.45-2.39c-.147-.276-.297-.55-.453-.82a20.307 20.307 0 0 0-.478-.787c.503.063.984.147 1.434.25-.143.463-.312.913-.503 1.356ZM8.006 3.696c.328.356.638.731.925 1.119a20.502 20.502 0 0 0-1.86 0c.307-.404.623-.779.935-1.12ZM4.381 1.78c.525-.305 1.69.132 2.919 1.22.078.069.156.144.237.219a15.875 15.875 0 0 0-1.34 1.66c-.706.062-1.406.171-2.1.324-.04-.16-.075-.322-.11-.484-.293-1.513-.1-2.653.394-2.938Zm-.765 8.238a7.941 7.941 0 0 1-.388-.122c-.666-.21-1.422-.54-1.969-.975a1.402 1.402 0 0 1-.587-.935c0-.571.987-1.303 2.412-1.8.179-.062.36-.118.541-.171.212.678.469 1.343.766 1.987-.3.653-.56 1.328-.775 2.016Zm3.643 3.062a5.72 5.72 0 0 1-1.762 1.103 1.383 1.383 0 0 1-1.103.041c-.497-.287-.703-1.39-.422-2.875.034-.175.072-.35.116-.522.7.15 1.406.253 2.121.306a16.49 16.49 0 0 0 1.35 1.67c-.1.096-.2.19-.3.277Zm.766-.76a14.764 14.764 0 0 1-.947-1.133 22.227 22.227 0 0 0 1.872-.004 13.47 13.47 0 0 1-.925 1.138Zm4.084.938a1.389 1.389 0 0 1-.515.979c-.497.287-1.556-.088-2.7-1.07a13.33 13.33 0 0 1-.397-.359c.478-.528.919-1.087 1.319-1.675a15.227 15.227 0 0 0 2.13-.328c.032.128.06.257.085.382.153.675.178 1.378.078 2.071Zm.57-3.359a6.594 6.594 0 0 1-.267.081 15.863 15.863 0 0 0-.796-1.994c.3-.637.553-1.293.765-1.965.163.047.319.097.469.147 1.456.5 2.478 1.243 2.478 1.812 0 .613-1.09 1.403-2.65 1.919ZM8 9.431A1.431 1.431 0 1 0 8 6.57a1.431 1.431 0 0 0 0 2.862Z"/></svg>