<svg xmlns="http://www.w3.org/2000/svg" fill="currentColor" class="ai" viewBox="0 0 16 16"><path d="M8.75 6.375a.75.75 0 0 0-1.5 0v3.25a.75.75 0 0 0 1.5 0z"/><path d="M4.564 0a1.75 1.75 0 0 0-1.713 1.395l-2.587 12.5A1.75 1.75 0 0 0 1.978 16h12.044a1.75 1.75 0 0 0 1.714-2.105l-2.587-12.5A1.75 1.75 0 0 0 11.436 0zM4.32 1.7a.25.25 0 0 1 .245-.2H7.25v1.625a.75.75 0 0 0 1.5 0V1.5h2.686a.25.25 0 0 1 .245.2l2.586 12.5a.25.25 0 0 1-.245.3H8.75v-1.625a.75.75 0 0 0-1.5 0V14.5H1.978a.25.25 0 0 1-.245-.3z"/></svg>