<svg xmlns="http://www.w3.org/2000/svg" fill="currentColor" class="ai" viewBox="0 0 16 16"><path d="m7.785 9.817-.98.049a28.077 28.077 0 0 1-.038-.23 12.504 12.504 0 0 0-.09-.497c-.123-.6-.355-1.167-.594-1.73l-.206-.481a28.219 28.219 0 0 1-.61-1.49c-.262-.72-.322-1.465-.094-2.213.2-.67.58-1.272 1.097-1.742.183-.168.379-.324.574-.48.126-.101.253-.202.376-.306.166-.141.327-.288.489-.434l.206-.186.054-.051L7.995 0l.174.16c.129.12.255.238.39.35.171.143.346.283.52.423.125.1.25.2.373.301.821.673 1.356 1.514 1.49 2.581a3.324 3.324 0 0 1-.19 1.556A26.957 26.957 0 0 1 10.093 7l-.034.079c-.296.688-.592 1.377-.749 2.115-.041.197-.07.398-.096.599-.008.057-.024.08-.083.076-.235-.016-.47-.03-.717-.045h-.001l-.19-.011a92.41 92.41 0 0 0-.22-7.502 87.6 87.6 0 0 0-.218 7.505Zm-2.563.241a3.113 3.113 0 0 0-.44-.972c-.204-.289-.454-.524-.803-.62a1.194 1.194 0 0 0-1.522.967 2.47 2.47 0 0 0-.013.499c.003.079.007.158.007.238-.176.062-.36.032-.539 0C1.206 10.038.694 9.625.35 9.013A2.696 2.696 0 0 1 .658 5.92a2.51 2.51 0 0 1 1.722-.911c.753-.072 1.41.17 1.996.627.507.394.887.896 1.197 1.451.38.673.647 1.405.788 2.165.02.109.034.218.047.328.009.077.018.155.03.232.012.079-.019.105-.092.113-.178.02-.356.042-.536.064a66.08 66.08 0 0 1-.588.069ZM2.58 6.525l-.026-.023-.16.083c-.105.053-.21.106-.31.163a.128.128 0 0 1-.185-.027 6.09 6.09 0 0 0-.24-.245l-.047-.045a.78.78 0 0 0-.069-.06 2.283 2.283 0 0 1-.03-.026c.002.132.015.262.04.391.02.133.03.2.006.248-.025.05-.087.08-.21.143l-.227.118-.103.054a.176.176 0 0 0 .101.047l.097.016a4.99 4.99 0 0 0 .384.054.134.134 0 0 1 .087.13c.014.125.037.248.059.371l.026.15a.17.17 0 0 0 .075-.08c.02-.039.04-.079.059-.12.033-.07.067-.14.104-.208.019-.034.032-.061.043-.083.02-.042.031-.063.049-.072.017-.01.042-.005.092.004l.08.012.134.02.362.05-.483-.471.292-.594Zm8.004 3.51.19.025.05-.143c.03-.089.06-.176.094-.261.158-.39.375-.742.719-.998a1.203 1.203 0 0 1 1.843.53c.123.322.12.647.061.988.051.01.102.018.154.023.306.017.61-.045.886-.18.892-.445 1.352-1.194 1.413-2.169.055-.92-.285-1.704-1.013-2.281-.84-.666-1.768-.742-2.736-.312-.573.258-1.015.681-1.388 1.18a6.779 6.779 0 0 0-1.071 2.212c-.116.385-.19.78-.22 1.18-.004.072.019.093.085.097.121.009.241.021.364.036.19.023.379.048.57.073Zm2.756-2.45a.675.675 0 0 1-.095 0l.117-.12c.087-.092.17-.18.26-.26.081-.072.088-.13.034-.22a3.385 3.385 0 0 1-.14-.268l-.05-.106a.184.184 0 0 1-.023-.108l.131.067c.107.054.215.109.318.17.091.052.151.061.23-.028.118-.132.25-.251.391-.357l-.011.079c-.016.108-.031.216-.05.324v.003c-.044.243-.044.244.173.356.126.06.247.131.361.21a.926.926 0 0 1-.09.024l-.053.008c-.142.023-.282.045-.424.063a.09.09 0 0 0-.092.089c-.017.12-.037.239-.058.358l-.017.096c-.005.03-.012.061-.021.104l-.008.034a2.374 2.374 0 0 0-.026-.039.514.514 0 0 1-.035-.055 20.431 20.431 0 0 0-.056-.11c-.052-.104-.105-.207-.153-.313a.113.113 0 0 0-.102-.08 11.804 11.804 0 0 1-.47.073l-.04.006Zm-5.289 6.574c.02-.105.04-.21.048-.314.032-.442.06-.884.087-1.325l.025-.408a4.26 4.26 0 0 0 .004-.092c.002-.067.005-.134.014-.2a.106.106 0 0 1 .071-.074c.238-.003.475-.003.72-.003h.205l.02.102a5.23 5.23 0 0 0 .846 2.058.157.157 0 0 1 .01.19 4.227 4.227 0 0 1-.956 1.18c-.32.282-.676.518-1.06.702a.213.213 0 0 1-.162.004 4.679 4.679 0 0 1-1.94-1.732c-.104-.166-.123-.292 0-.473a4.68 4.68 0 0 0 .767-1.951c.014-.086.04-.115.133-.109.258.017.516.024.774.026.086 0 .118.025.123.11l.007.23c.008.272.016.545.039.815.026.32.062.64.099.96l.042.38a.336.336 0 0 0 .022.065l.036.004.026-.145ZM4.65 12.59c-.411.233-.834.197-1.272.027l.007.05a1.543 1.543 0 0 0 .552.983c.373.312.969.44 1.43.09.148-.11.28-.24.393-.386.296-.39.506-.84.614-1.317.02-.08.035-.16.05-.242l.02-.108-1.114-.156c-.092.444-.268.825-.68 1.058Zm4.886-.902 1.122-.158c.096.436.283.819.691 1.045.408.226.824.195 1.272.015-.02.11-.047.22-.08.326-.17.473-.473.82-.969.966-.406.119-.767.02-1.078-.26-.42-.38-.652-.873-.82-1.402a4.505 4.505 0 0 1-.09-.338 8.942 8.942 0 0 0-.048-.194Zm-4.04-.529c.827.177 1.668.208 2.51.208h.13c.085.002.171.002.257 0a11.125 11.125 0 0 0 2.02-.188c.237-.056.47-.128.697-.215.08-.028.185-.083.162-.18a.335.335 0 0 0-.17-.176 1.97 1.97 0 0 0-.4-.149c-.79-.198-1.598-.246-2.408-.26a13.38 13.38 0 0 0-2.245.116c-.336.057-.67.131-.998.223a.945.945 0 0 0-.287.163.103.103 0 0 0-.005.165c.033.04.075.071.123.093.2.08.405.147.614.2Zm5.352-.394v.049a1.64 1.64 0 0 1-.25.065c-.114.01-.228.023-.341.034-.341.035-.682.07-1.023.089-.501.027-1.005.039-1.507.033-.767-.01-1.535-.035-2.295-.155-.064-.01-.128-.028-.192-.045a3.724 3.724 0 0 0-.091-.024v-.046a.907.907 0 0 1 .18-.058c.15-.015.3-.031.449-.048.41-.044.819-.089 1.23-.112a20.19 20.19 0 0 1 2.92.061c.207.02.414.052.62.083l.136.021c.056.013.11.031.164.053Z"/></svg>