<svg xmlns="http://www.w3.org/2000/svg" fill="currentColor" class="ai" viewBox="0 0 16 16"><path d="M1.95 4.57c-.206.315-.414.632-.6.88a.75.75 0 1 1-1.2-.9c.157-.21.322-.46.512-.75l.302-.458c.311-.464.676-.98 1.084-1.401.396-.41.916-.821 1.553-.933.7-.123 1.36.142 1.93.712C6.75 2.94 6.75 4.457 6.75 4.984V5l.003.422a101.018 101.018 0 0 0 3.81-1.31l.13-.048.033-.012.01-.004a.751.751 0 0 1 .969.958c-.322.884-.7 2.219-.808 3.353-.055.574-.034 1.03.054 1.334.083.285.18.317.23.33.615.153 1.36.065 2.075-.153.713-.217 1.293-.532 1.544-.72a.75.75 0 0 1 .9 1.2c-.416.312-1.16.697-2.006.955-.844.257-1.89.419-2.876.173-.749-.188-1.136-.777-1.307-1.367-.166-.572-.17-1.248-.108-1.895.071-.739.236-1.529.43-2.247a85.452 85.452 0 0 1-3.044 1.015c.03 1.162.061 2.461.023 3.604-.032.951-.112 1.874-.295 2.61-.092.367-.22.726-.405 1.027-.187.304-.466.6-.875.736a1.706 1.706 0 0 1-1.666-.297c-.406-.324-.7-.806-.93-1.266-.226-.453-.433-.976-.632-1.477l-.026-.066a19.736 19.736 0 0 0-.654-1.52c-.363-.726-.352-1.613.078-2.387.433-.779 1.252-1.386 2.411-1.676.462-.115.949-.249 1.442-.393-.006-.306-.01-.6-.01-.879 0-.489-.014-1.453-.78-2.22-.314-.314-.503-.313-.61-.295-.169.03-.413.167-.733.498-.31.32-.613.74-.917 1.194l-.26.394ZM5.3 7.43a37.9 37.9 0 0 1-1.117.299c-.841.21-1.272.603-1.464.949-.195.351-.184.714-.047.988.266.533.496 1.11.706 1.636l.014.037c.21.526.396.996.592 1.39.208.414.383.651.525.764.088.07.137.084.246.05a.39.39 0 0 0 .081-.103c.074-.12.154-.316.226-.605.145-.578.221-1.373.252-2.296a53.443 53.443 0 0 0-.014-3.11Zm-.55 6.115h.002a.013.013 0 0 1-.002 0Zm-3.003.3A13.63 13.63 0 0 1 1.366 13H.75a.75.75 0 0 0 0 1.5h1.367a6.786 6.786 0 0 1-.37-.655Z"/><path d="M7.103 14.5h8.147a.75.75 0 0 0 0-1.5H7.583c-.054.283-.12.558-.202.815a4.44 4.44 0 0 1-.278.685Zm4.647-11a.75.75 0 1 0 0-1.5.75.75 0 0 0 0 1.5Z"/></svg>