<svg xmlns="http://www.w3.org/2000/svg" fill="currentColor" class="ai" viewBox="0 0 16 16"><path d="M8 0a.75.75 0 0 1 .75.75v1.44l.97-.97a.75.75 0 1 1 1.06 1.06L8.75 4.31v2.391l2.07-1.195.743-2.774a.75.75 0 0 1 1.45.389l-.356 1.324 1.247-.72a.75.75 0 1 1 .75 1.3l-1.247.72 1.325.354a.75.75 0 1 1-.388 1.449l-2.774-.743L9.5 8l2.07 1.195 2.774-.743a.75.75 0 0 1 .388 1.449l-1.325.355 1.247.72a.75.75 0 0 1-.75 1.298l-1.247-.72.355 1.325a.75.75 0 0 1-1.449.389l-.743-2.774L8.75 9.3v2.39l2.03 2.03a.75.75 0 1 1-1.06 1.061l-.97-.97v1.44a.75.75 0 0 1-1.5 0v-1.44l-.97.97a.75.75 0 0 1-1.06-1.06l2.03-2.03V9.298l-2.07 1.195-.743 2.774a.75.75 0 1 1-1.45-.389l.356-1.324-1.247.72a.75.75 0 0 1-.75-1.3l1.247-.72L1.268 9.9a.75.75 0 0 1 .388-1.449l2.774.743L6.5 8 4.43 6.805l-2.774.743a.75.75 0 1 1-.388-1.449l1.325-.355-1.247-.72a.75.75 0 1 1 .75-1.299l1.247.72-.355-1.324a.75.75 0 1 1 1.449-.389l.743 2.774L7.25 6.7V4.31L5.22 2.28a.75.75 0 1 1 1.06-1.06l.97.97V.75A.75.75 0 0 1 8 0Z"/></svg>