<svg xmlns="http://www.w3.org/2000/svg" fill="currentColor" class="ai" viewBox="0 0 16 16"><path d="M9.78 1.28A.75.75 0 1 0 8.72.22l-1.5 1.5a.75.75 0 0 0 1.06 1.06zM.945 8.158l2.895-.381L5.098 5.14a1 1 0 0 1 1.805 0L8.16 7.777l2.895.381a1 1 0 0 1 .558 1.717l-2.118 2.01.532 2.872a1 1 0 0 1-1.46 1.061L6 14.425l-2.566 1.393a1 1 0 0 1-1.46-1.061l.53-2.871-2.117-2.01a1 1 0 0 1 .558-1.718m6.212 1L6 6.733 4.843 9.158l-2.663.35 1.948 1.85L3.638 14 6 12.718 8.361 14l-.489-2.642 1.948-1.85zM15.78 6.22a.75.75 0 0 1 0 1.06l-1.5 1.5a.75.75 0 0 1-1.06-1.06l1.5-1.5a.75.75 0 0 1 1.06 0m0-4.94A.75.75 0 1 0 14.72.22l-5 5a.75.75 0 1 0 1.06 1.06z"/></svg>