<svg xmlns="http://www.w3.org/2000/svg" fill="currentColor" class="ai" viewBox="0 0 16 16"><path d="M2.478 7.706.528 6.609a1 1 0 0 1 0-1.743l7-3.938a1 1 0 0 1 .98 0l7 3.938a1 1 0 0 1 0 1.743l-1.951 1.097a1.67 1.67 0 0 0-.84-1.186l-2.062-1.16-1.16-2.063c-.649-1.152-2.307-1.152-2.955 0L5.38 5.36 3.317 6.52c-.479.27-.759.713-.84 1.186"/><path d="M6.088 6.257 3.77 7.562a.5.5 0 0 0 0 .872l2.3 1.294h.003q.132.077.21.208l1.297 2.308a.5.5 0 0 0 .872 0l.044-.08.013-.02 1.238-2.201a.56.56 0 0 1 .211-.213l.004-.002 2.2-1.238.02-.012.08-.045a.5.5 0 0 0 0-.872l-.094-.053-.005-.003-2.201-1.238-.005-.003a.56.56 0 0 1-.21-.213l-1.238-2.2-.007-.012-.05-.09a.5.5 0 0 0-.872 0L6.278 6.068l-.002.002a.6.6 0 0 1-.188.188"/><path d="m.527 9.386 1.95-1.097c.081.473.361.916.84 1.185l2.063 1.16 1.16 2.064c.648 1.152 2.306 1.152 2.954 0l1.16-2.063 2.064-1.16c.478-.27.758-.713.839-1.187l1.95 1.098a1 1 0 0 1 0 1.743l-7 3.937a1 1 0 0 1-.98 0l-7-3.937a1 1 0 0 1 0-1.743"/></svg>