<svg xmlns="http://www.w3.org/2000/svg" fill="currentColor" class="ai" viewBox="0 0 16 16"><path d="M7.25.75a.75.75 0 0 1 1.5 0v.5a.75.75 0 0 1-1.5 0v-.5Zm-6.5 8a.75.75 0 0 1 0-1.5h.5a.75.75 0 0 1 0 1.5h-.5Zm14.5-1.5h-.128c.066.082.128.166.187.253.253.153.484.337.69.546a.75.75 0 0 0-.748-.799ZM8 3a5 5 0 0 1 4.456 2.73 4.482 4.482 0 0 0-2.646-.726A3.5 3.5 0 0 0 5.022 9.84a3.733 3.733 0 0 0 .688 2.606A5 5 0 0 1 8 3Zm.75 12.25a.75.75 0 0 1-1.5 0v-.5a.75.75 0 0 1 1.5 0v.5ZM2.343 3.404a.75.75 0 1 1 1.06-1.06l.354.353a.75.75 0 0 1-1.06 1.06l-.354-.353Zm1.061 10.253a.75.75 0 0 1-1.06-1.06l.353-.354a.75.75 0 1 1 1.06 1.06l-.353.354Zm9.899-9.9a.75.75 0 0 1-1.06-1.06l.353-.354a.75.75 0 0 1 1.06 1.06l-.353.354Z"/><path d="M12.171 6.755a2.998 2.998 0 0 1 2.43 1.5A2.5 2.5 0 0 1 13.5 13H8.75a2.75 2.75 0 0 1-2.095-4.53 3.5 3.5 0 0 1 5.516-1.715ZM13.5 9.5h-.02a1.5 1.5 0 0 0-1.877-1.197 2 2 0 0 0-3.586.934A1.25 1.25 0 0 0 8.75 11.5h4.75a1 1 0 1 0 0-2Z"/></svg>