<svg xmlns="http://www.w3.org/2000/svg" fill="currentColor" class="ai" viewBox="0 0 16 16"><path d="M7.25 1.75a.75.75 0 0 1 1.5 0v.5a.75.75 0 0 1-1.5 0v-.5Zm-6.5 8a.75.75 0 0 1 0-1.5h.5a.75.75 0 0 1 0 1.5h-.5Zm14 0a.75.75 0 0 1 0-1.5h.5a.75.75 0 0 1 0 1.5h-.5ZM2.343 4.404a.75.75 0 1 1 1.06-1.06l.354.353a.75.75 0 0 1-1.06 1.06l-.354-.353Zm10.96.353a.75.75 0 0 1-1.06-1.06l.353-.354a.75.75 0 0 1 1.06 1.06l-.353.354ZM11.5 9a3.5 3.5 0 0 1-.145 1H12.9a5 5 0 1 0-9.8 0h1.545A3.5 3.5 0 1 1 11.5 9Z"/><path d="M8.53 8.72a.75.75 0 0 0-1.06 0L5.19 11H.75a.75.75 0 0 0 0 1.5H5.5a.75.75 0 0 0 .53-.22L8 10.31l1.97 1.97c.14.141.331.22.53.22h4.75a.75.75 0 0 0 0-1.5h-4.44L8.53 8.72Z"/></svg>