<svg xmlns="http://www.w3.org/2000/svg" fill="currentColor" class="ai" viewBox="0 0 16 16"><path d="M7.25 1.75a.75.75 0 0 1 1.5 0v.5a.75.75 0 0 1-1.5 0v-.5Zm-6.5 8a.75.75 0 0 1 0-1.5h.5a.75.75 0 0 1 0 1.5h-.5Zm14 0a.75.75 0 0 1 0-1.5h.5a.75.75 0 0 1 0 1.5h-.5ZM2.343 4.404a.75.75 0 1 1 1.06-1.06l.354.353a.75.75 0 0 1-1.06 1.06l-.354-.353Zm10.96.353a.75.75 0 0 1-1.06-1.06l.353-.354a.75.75 0 0 1 1.06 1.06l-.353.354ZM11.5 9a3.5 3.5 0 0 1-.145 1H12.9a5 5 0 1 0-9.8 0h1.545A3.5 3.5 0 1 1 11.5 9ZM.75 11a.75.75 0 0 0 0 1.5h4.44l2.28 2.28a.75.75 0 0 0 1.06 0l2.28-2.28h4.44a.75.75 0 0 0 0-1.5H10.5a.75.75 0 0 0-.53.22L8 13.19l-1.97-1.97A.75.75 0 0 0 5.5 11H.75Z"/></svg>