<svg xmlns="http://www.w3.org/2000/svg" fill="currentColor" class="ai" viewBox="0 0 16 16"><path fill-rule="evenodd" d="M3.25 1a.75.75 0 0 0-.75.75V4a.5.5 0 0 1-1 0v-.25a.75.75 0 0 0-1.5 0V4a2 2 0 0 0 3.88.686L5.035 7H1.75A1.75 1.75 0 0 0 0 8.75v2.75c0 .966.784 1.75 1.75 1.75h.364a2.501 2.501 0 0 0 4.772 0h2.228a2.501 2.501 0 0 0 4.772 0h.364A1.75 1.75 0 0 0 16 11.5V7.965a1.75 1.75 0 0 0-.154-.718l-1.897-4.215A1.75 1.75 0 0 0 12.353 2H10.75A1.75 1.75 0 0 0 9 3.75v2.072L4.803 1.243A.75.75 0 0 0 4.25 1zm10.636 10.75h.364a.25.25 0 0 0 .25-.25v-3H1.75a.25.25 0 0 0-.25.25v2.75c0 .138.112.25.25.25h.364a2.501 2.501 0 0 1 4.772 0h2.228a2.501 2.501 0 0 1 4.772 0M6.714 7 5.116 3.804 8.046 7zm7.376 0H10.5V3.75a.25.25 0 0 1 .25-.25h1.603a.25.25 0 0 1 .228.147zM4.5 13.5a1 1 0 1 0 0-2 1 1 0 0 0 0 2m7 0a1 1 0 1 0 0-2 1 1 0 0 0 0 2"/><path d="M3.25 1a.75.75 0 0 0-.75.75V4a.5.5 0 0 1-1 0v-.25a.75.75 0 0 0-1.5 0V4a2 2 0 0 0 3.88.686L5.035 7H1.75A1.75 1.75 0 0 0 0 8.75v2.75c0 .966.784 1.75 1.75 1.75h.364a2.501 2.501 0 0 0 4.772 0h2.228a2.501 2.501 0 0 0 4.772 0h.364A1.75 1.75 0 0 0 16 11.5V7.965a1.75 1.75 0 0 0-.154-.718l-1.897-4.215A1.75 1.75 0 0 0 12.353 2H10.75A1.75 1.75 0 0 0 9 3.75v2.072L4.803 1.243A.75.75 0 0 0 4.25 1zm10.636 10.75a2.501 2.501 0 0 0-4.772 0H6.886a2.501 2.501 0 0 0-4.772 0H1.75a.25.25 0 0 1-.25-.25V8.75a.25.25 0 0 1 .25-.25H14.5v3a.25.25 0 0 1-.25.25zM6.714 7 5.116 3.804 8.046 7zm7.376 0H10.5V3.75a.25.25 0 0 1 .25-.25h1.603a.25.25 0 0 1 .228.147zM4.5 13.5a1 1 0 1 1 0-2 1 1 0 0 1 0 2m7 0a1 1 0 1 1 0-2 1 1 0 0 1 0 2"/></svg>