<svg xmlns="http://www.w3.org/2000/svg" fill="currentColor" class="ai" viewBox="0 0 16 16"><path d="M8 16A8 8 0 1 0 8 0a8 8 0 0 0 0 16Zm4.411-3.256c-.207.396-1.486 1.169-2.427 1.465a7.136 7.136 0 0 1-2.632.268 6.52 6.52 0 0 1-2.886-1.023c-.731-.477-.896-.674-.896-1.064 0-.784.862-2.157 2.338-3.725.839-.888 2.005-1.932 2.133-1.903.247.055 2.21 1.969 2.944 2.87 1.161 1.424 1.696 2.59 1.426 3.112ZM6.073 4.916l.16.145c-1.74 2.136-2.779 4.073-3.154 5.096-.256.694-.359 1.389-.249 1.677.074.194.006.123-.243-.26-.608-.93-.915-1.845-1.062-3.168-.05-.438-.031-.69.11-1.586.178-1.12.815-2.412 1.58-3.209.326-.338.355-.346.753-.212.691.232 1.384.862 2.105 1.517Zm6.372-1.606c.186 0 1.513 1.318 1.956 3.415.123.593.133 1.859.02 2.449a7.696 7.696 0 0 1-.487 1.538c-.144.32-.506.939-.666 1.14-.035.044-.055.07-.062.066-.01-.004 0-.059.026-.186.06-.294-.016-.828-.194-1.37-.543-1.65-2.11-3.907-3.222-5.304l.144-.132c.542-.499.98-.902 1.542-1.252.309-.194.752-.364.943-.364Zm-4.67-.063c-.502-.25-1.766-.882-2.782-.828-.383.018-.367-.003.246-.294 2.129-1.004 4.457-.723 6.132.307a4.555 4.555 0 0 1-.1-.006c-.392-.027-1.183-.08-2.716.666a5.242 5.242 0 0 1-.566.255 1.84 1.84 0 0 1-.214-.1Z"/></svg>