<svg xmlns="http://www.w3.org/2000/svg" fill="currentColor" class="ai" viewBox="0 0 16 16"><path d="M8 1.5c-2.411 0-3.5 1.69-3.5 2.75a.75.75 0 0 1-1.5 0C3 2.31 4.811 0 8 0s5 2.31 5 4.25c0 1.496-.595 2.505-1.473 3.367-.422.415-.914.801-1.422 1.189l-.272.207c-.434.33-.883.672-1.353 1.063C7.012 11.3 6 12.378 5.362 13.278c-.34.478-.56.885-.692 1.222h7.58a.75.75 0 0 1 0 1.5h-8.5a.75.75 0 0 1-.75-.75c0-.853.414-1.82 1.138-2.84.737-1.038 1.85-2.21 3.382-3.486.497-.415.978-.78 1.413-1.11l.261-.2c.509-.389.933-.725 1.282-1.067.662-.65 1.024-1.293 1.024-2.297 0-1.06-1.089-2.75-3.5-2.75"/></svg>