<svg xmlns="http://www.w3.org/2000/svg" fill="currentColor" class="ai" viewBox="0 0 16 16"><path d="M4.006.657A.75.75 0 0 1 4.75 0h7.5a.75.75 0 1 1 0 1.5H5.412l-.578 4.625C5.621 5.616 6.671 5.25 8 5.25c2.05 0 3.35.875 4.103 2.027.72 1.104.897 2.39.897 3.223 0 .896-.173 2.242-.889 3.39C11.364 15.087 10.062 16 8 16c-1.632 0-2.746-.411-3.531-1.04-.754-.603-1.129-1.352-1.377-1.848l-.013-.027a.75.75 0 1 1 1.342-.67c.252.504.503.989.985 1.374.465.372 1.226.711 2.594.711 1.538 0 2.361-.64 2.839-1.405.51-.816.661-1.846.661-2.595 0-.668-.149-1.63-.653-2.402C10.375 7.375 9.55 6.75 8 6.75c-1.313 0-2.2.452-2.755.938a2.9 2.9 0 0 0-.6.721c-.084.147-.12.25-.134.302l-.017.132A.75.75 0 0 1 3 8.75q0-.146.032-.299z"/></svg>