<svg xmlns="http://www.w3.org/2000/svg" fill="currentColor" class="ai" viewBox="0 0 16 16"><path d="M9.666 8.374a1.52 1.52 0 0 1 1.668 0 .75.75 0 1 0 .832-1.248 3.02 3.02 0 0 0-3.332 0 .75.75 0 0 0 .832 1.248m-3.332 0a1.52 1.52 0 0 0-1.668 0 .75.75 0 0 1-.832-1.248 3.02 3.02 0 0 1 3.332 0 .75.75 0 0 1-.832 1.248m.476 2.564.649 1.124a.625.625 0 0 0 1.082 0l.65-1.124A.625.625 0 0 0 8.65 10h-1.3a.625.625 0 0 0-.54.938"/><path fill-rule="evenodd" d="M1.745.034a.84.84 0 0 0-.84.249C.53.697.317 1.3.196 1.897a8.5 8.5 0 0 0-.13 2.067c.042.818.188 1.702.465 2.524A6.2 6.2 0 0 0 0 9c0 3.866 3.582 7 8 7s8-3.134 8-7c0-.86-.177-1.684-.501-2.445.292-.84.445-1.75.488-2.59a8.5 8.5 0 0 0-.13-2.068c-.12-.597-.335-1.2-.71-1.614a.84.84 0 0 0-.839-.249c-1.102.29-2.29.897-3.344 1.57a19 19 0 0 0-.92.627A9 9 0 0 0 8 2a9 9 0 0 0-2.005.222c-.29-.211-.595-.42-.907-.618C4.035.93 2.846.324 1.745.034m.092 7.234-.005-.008a5 5 0 0 1 .34-.697c-.354-.767-.56-1.728-.608-2.676a7 7 0 0 1 .103-1.694c.047-.234.103-.42.161-.566.776.27 1.632.716 2.452 1.24.501.32.976.661 1.397.995A7.5 7.5 0 0 1 8 3.5q.243 0 .48.014a7.5 7.5 0 0 1 1.88.36 17 17 0 0 1 1.412-1.006c.82-.525 1.677-.97 2.453-1.24.057.144.114.331.16.565.096.476.136 1.065.104 1.694-.05.969-.264 1.95-.631 2.727q.179.313.31.646l-.005.008c.22.554.337 1.138.337 1.732 0 2.856-2.716 5.5-6.5 5.5S1.5 11.856 1.5 9c0-.594.117-1.178.337-1.732"/></svg>