<svg xmlns="http://www.w3.org/2000/svg" fill="currentColor" class="ai" viewBox="0 0 16 16"><path d="M2.5 6.5v3a.5.5 0 0 0 .5.5h1.5a.5.5 0 0 0 .5-.5v-3a.5.5 0 0 0-.5-.5H3a.5.5 0 0 0-.5.5"/><path d="M2.75 3.5A2.75 2.75 0 0 0 0 6.25v3.5a2.75 2.75 0 0 0 2.75 2.75h9.5a2.75 2.75 0 0 0 2.705-2.25h.295A.75.75 0 0 0 16 9.5v-3a.75.75 0 0 0-.75-.75h-.295A2.75 2.75 0 0 0 12.25 3.5zM1.5 6.25C1.5 5.56 2.06 5 2.75 5h9.5c.69 0 1.25.56 1.25 1.25v3.5c0 .69-.56 1.25-1.25 1.25h-9.5c-.69 0-1.25-.56-1.25-1.25z"/></svg>