<svg xmlns="http://www.w3.org/2000/svg" fill="currentColor" class="ai" viewBox="0 0 16 16"><path d="M6.5 3.25a.75.75 0 0 1 .75-.75h1.5a.75.75 0 0 1 .633.347l1.753 2.755.96 1.537a3 3 0 1 1-1.272.796l-.324-.52-1.864 2.983A.75.75 0 0 1 8 10.75H5.905A3.001 3.001 0 0 1 0 10a3 3 0 0 1 3.904-2.861l.717-1.147-.296-.492H3.5a.75.75 0 0 1 0-1.5h1.25a.75.75 0 0 1 .643.364l.532.886h3.209L8.338 4H7.25a.75.75 0 0 1-.75-.75m5.175 6.046a1.5 1.5 0 1 0 1.272-.795l.689 1.101a.75.75 0 1 1-1.272.796zM3 10.75a.75.75 0 0 1-.636-1.148l.689-1.101L3 8.5a1.5 1.5 0 1 0 1.3 2.25zm3.853-4L8 8.585 9.147 6.75zm-.206 2.5L5.5 7.415 4.353 9.25z"/></svg>