<svg xmlns="http://www.w3.org/2000/svg" fill="currentColor" class="ai" viewBox="0 0 16 16"><path d="M6 7.25a.75.75 0 1 1-1.5 0 .75.75 0 0 1 1.5 0m-.75 3.5a.75.75 0 1 0 0-1.5.75.75 0 0 0 0 1.5m.75 2a.75.75 0 1 1-1.5 0 .75.75 0 0 1 1.5 0M8 8a.75.75 0 1 0 0-1.5A.75.75 0 0 0 8 8m.75 2a.75.75 0 1 1-1.5 0 .75.75 0 0 1 1.5 0M8 13.5A.75.75 0 1 0 8 12a.75.75 0 0 0 0 1.5m3.5-6.25a.75.75 0 1 1-1.5 0 .75.75 0 0 1 1.5 0m-.75 2A.75.75 0 0 0 10 10v2.75a.75.75 0 0 0 1.5 0V10a.75.75 0 0 0-.75-.75"/><path d="M2 2.75A2.75 2.75 0 0 1 4.75 0h6.5A2.75 2.75 0 0 1 14 2.75v10.5A2.75 2.75 0 0 1 11.25 16h-6.5A2.75 2.75 0 0 1 2 13.25zM4.75 1.5c-.69 0-1.25.56-1.25 1.25v10.5c0 .69.56 1.25 1.25 1.25h6.5c.69 0 1.25-.56 1.25-1.25V2.75c0-.69-.56-1.25-1.25-1.25z"/></svg>