<svg xmlns="http://www.w3.org/2000/svg" fill="currentColor" class="ai" viewBox="0 0 16 16"><path d="M11.5 8.5a3.5 3.5 0 1 1-7 0 3.5 3.5 0 0 1 7 0m-1.5 0a2 2 0 1 0-4 0 2 2 0 0 0 4 0"/><path d="M6.986 1a2.75 2.75 0 0 0-2.46 1.52l-.17.342A.25.25 0 0 1 4.132 3H2.75A2.75 2.75 0 0 0 0 5.75v6.5A2.75 2.75 0 0 0 2.75 15h10.5A2.75 2.75 0 0 0 16 12.25v-6.5A2.75 2.75 0 0 0 13.25 3h-1.382a.25.25 0 0 1-.224-.138l-.17-.342A2.75 2.75 0 0 0 9.014 1zM5.868 3.191A1.25 1.25 0 0 1 6.986 2.5h2.028c.473 0 .906.268 1.118.691l.17.342a1.75 1.75 0 0 0 1.566.967h1.382c.69 0 1.25.56 1.25 1.25v6.5c0 .69-.56 1.25-1.25 1.25H2.75c-.69 0-1.25-.56-1.25-1.25v-6.5c0-.69.56-1.25 1.25-1.25h1.382a1.75 1.75 0 0 0 1.565-.967z"/></svg>