<svg xmlns="http://www.w3.org/2000/svg" fill="currentColor" class="ai" viewBox="0 0 16 16"><path fill-rule="evenodd" d="m7 0 .704 1.174L8.5 2.5l1.093-1.093L10 1c2 1.5 2.5 2.5 2.5 4.5V6a4.5 4.5 0 0 1-9 0v-.207c0-.195.011-.389.048-.58.146-.768.675-2.904 2.22-4.35q.263-.248.567-.464Q6.645.18 7 0m2.56 3.56.53-.529c.292.288.472.528.593.75.206.377.317.842.317 1.719V6a3 3 0 0 1-6 0v-.207c0-.14.008-.232.021-.3.075-.393.275-1.23.713-2.086.225-.44.499-.857.83-1.218l.65 1.083.988 1.647zM2 9.794a.75.75 0 1 0-.498 1.415l4.24 1.491L.5 14.543a.75.75 0 0 0 .498 1.415l7-2.464L15 15.958a.75.75 0 1 0 .498-1.415l-5.24-1.844 4.24-1.492A.75.75 0 0 0 14 9.794l-6 2.11z"/><path d="m7 0 1.5 2.5L10 1c2 1.5 2.5 2.5 2.5 4.5V6a4.5 4.5 0 0 1-9 0v-.207c0-.195.011-.389.048-.58.146-.768.675-2.904 2.22-4.35q.263-.248.567-.464Q6.645.18 7 0m3.09 3.031L8.202 4.92 6.564 2.19a5.5 5.5 0 0 0-.83 1.218 8 8 0 0 0-.713 2.086c-.013.068-.021.16-.021.3V6a3 3 0 1 0 6 0v-.5c0-.877-.111-1.342-.317-1.72a3.2 3.2 0 0 0-.593-.749"/><path d="M1.999 9.793a.75.75 0 1 0-.498 1.415l4.24 1.491L.5 14.543a.75.75 0 0 0 .498 1.415l7-2.464L15 15.958a.75.75 0 1 0 .498-1.415l-5.24-1.844 4.24-1.492A.75.75 0 0 0 14 9.794l-6 2.11z"/></svg>