<svg xmlns="http://www.w3.org/2000/svg" fill="currentColor" class="ai" viewBox="0 0 16 16"><path d="M16 6.5a3.5 3.5 0 0 0-2.447-3.339 4 4 0 0 0-4.57-2.03 4.5 4.5 0 0 0-7.258 1.963A3.75 3.75 0 0 0 3.75 10h8.749A3.5 3.5 0 0 0 16 6.5m-6-4a2.5 2.5 0 0 1 2.45 2h.05a2 2 0 1 1 0 4H3.75a2.25 2.25 0 0 1-.726-4.38 3 3 0 0 1 5.545-1.17A2.5 2.5 0 0 1 10 2.5m-1.25 9.25a.75.75 0 0 0-1.5 0v.5h-.5a.75.75 0 0 0 0 1.5h.5v.5a.75.75 0 0 0 1.5 0v-.5h.5a.75.75 0 0 0 0-1.5h-.5zm-5 1a.75.75 0 0 0-1.5 0v.5h-.5a.75.75 0 0 0 0 1.5h.5v.5a.75.75 0 0 0 1.5 0v-.5h.5a.75.75 0 0 0 0-1.5h-.5zM13 12a.75.75 0 0 1 .75.75v.5h.5a.75.75 0 0 1 0 1.5h-.5v.5a.75.75 0 0 1-1.5 0v-.5h-.5a.75.75 0 0 1 0-1.5h.5v-.5A.75.75 0 0 1 13 12"/></svg>