<svg xmlns="http://www.w3.org/2000/svg" fill="currentColor" class="ai" viewBox="0 0 16 16"><path d="M9.25.75a.75.75 0 1 1 1.5 0v.5a.75.75 0 0 1-1.5 0zm-4 4.5A.75.75 0 0 1 6 6a5.5 5.5 0 0 0-1.917.344.75.75 0 0 1 .667-1.094zM13 6c0 .616-.186 1.19-.505 1.666a5 5 0 0 0-1.479-.563 1.5 1.5 0 1 0-2.349-.414 5.5 5.5 0 0 0-1.666-.598L7 6a3 3 0 1 1 6 0m1.75.75a.75.75 0 0 1 0-1.5h.5a.75.75 0 0 1 0 1.5zM5.757 2.818a.75.75 0 0 1 1.061-1.06l.354.353A.75.75 0 0 1 6.11 3.17zm8.133.354a.75.75 0 0 1-1.062-1.061l.354-.354a.75.75 0 0 1 1.06 1.061zM3.75 16H13a3 3 0 0 0 .487-5.96 4 4 0 0 0-4.504-1.91A4.48 4.48 0 0 0 6 7c-1.443 0-2.725.68-3.547 1.73A3.75 3.75 0 0 0 3.75 16m10.75-3a1.5 1.5 0 0 1-1.5 1.5H3.75a2.25 2.25 0 0 1-.366-4.47 3 3 0 0 1 5.185-.08A2.5 2.5 0 0 1 10 9.5a2.5 2.5 0 0 1 2.468 2.097 1.5 1.5 0 0 1 .592-.096A1.5 1.5 0 0 1 14.5 13"/></svg>