<svg xmlns="http://www.w3.org/2000/svg" fill="currentColor" class="ai" viewBox="0 0 16 16"><path d="M12.225.398A6 6 0 0 0 10.06 0a6.06 6.06 0 0 0-6.052 6.372c.47-.182.97-.302 1.492-.35A4.56 4.56 0 0 1 9.545 1.53a4.9 4.9 0 0 0-1.363 3.395 4.9 4.9 0 0 0 .288 1.66q.407.206.773.473a5 5 0 0 1 1.155-.041 3.41 3.41 0 0 1 2.692-5.5c.283 0 .485-.401.248-.554a6 6 0 0 0-1.113-.564m3.241 8.405a6 6 0 0 1-.447.742 4 4 0 0 0-.906-.389 5 5 0 0 0-.727-.836q.37-.033.713-.14h.003a3 3 0 0 0 .266-.095c.502-.203 1.344.235 1.098.718M3.75 16H13a3 3 0 0 0 .487-5.96 4 4 0 0 0-4.504-1.91A4.48 4.48 0 0 0 6 7c-1.443 0-2.725.68-3.547 1.73A3.75 3.75 0 0 0 3.75 16m10.75-3a1.5 1.5 0 0 1-1.5 1.5H3.75a2.25 2.25 0 0 1-.366-4.47 3 3 0 0 1 5.185-.08 2.5 2.5 0 0 1 3.899 1.647 1.5 1.5 0 0 1 .592-.096A1.5 1.5 0 0 1 14.5 13"/></svg>