<svg xmlns="http://www.w3.org/2000/svg" fill="currentColor" class="ai" viewBox="0 0 16 16"><path stroke="#252530" stroke-linecap="round" stroke-linejoin="round" stroke-width="1.5" d="M4.75.75v4m0 10.5v-4m0 0h-4m4 0h6.5m-6.5 0v-6.5m10.5 6.5h-4m0 0v4m0-4v-6.5m0-4v4m0 0h4m-4 0h-6.5m0 0h-4"/><path d="M4.75 0a.75.75 0 0 1 .75.75V4h5V.75a.75.75 0 0 1 1.5 0V4h3.25a.75.75 0 0 1 0 1.5H12v5h3.25a.75.75 0 0 1 0 1.5H12v3.25a.75.75 0 0 1-1.5 0V12h-5v3.25a.75.75 0 0 1-1.5 0V12H.75a.75.75 0 0 1 0-1.5H4v-5H.75a.75.75 0 0 1 0-1.5H4V.75A.75.75 0 0 1 4.75 0m.75 5.5v5h5v-5z"/></svg>