<svg xmlns="http://www.w3.org/2000/svg" fill="currentColor" class="ai" viewBox="0 0 16 16"><path fill-rule="evenodd" d="M16 8A8 8 0 1 1 0 8a8 8 0 0 1 16 0m-5.515-6.008a6.5 6.5 0 0 1 3.972 5.258h-2.97c-.053-1.617-.277-3.112-.64-4.287a8 8 0 0 0-.362-.971m-4.97 0A6.5 6.5 0 0 0 1.543 7.25h2.97c.053-1.617.278-3.112.64-4.287.102-.333.221-.662.362-.971m.498 5.258C6.128 4.013 6.973 1.5 8 1.5s1.872 2.513 1.987 5.75zm-1.5 1.5h-2.97a6.5 6.5 0 0 0 3.972 5.258c-.14-.31-.26-.638-.363-.97-.361-1.176-.586-2.671-.64-4.288m5.972 5.258a6.5 6.5 0 0 0 3.972-5.258h-2.97c-.053 1.617-.277 3.112-.64 4.287a8 8 0 0 1-.362.971M9.987 8.75C9.872 11.987 9.027 14.5 8 14.5s-1.872-2.513-1.987-5.75z"/><path d="M16 8A8 8 0 1 1 0 8a8 8 0 0 1 16 0m-5.515-6.008c.14.31.26.638.363.97.361 1.176.586 2.671.64 4.288h2.97a6.5 6.5 0 0 0-3.973-5.258m-4.97 0A6.5 6.5 0 0 0 1.543 7.25h2.97c.053-1.617.278-3.112.64-4.287.102-.333.221-.662.362-.971m.498 5.258h3.974C9.872 4.013 9.027 1.5 8 1.5S6.128 4.013 6.013 7.25m-1.5 1.5h-2.97a6.5 6.5 0 0 0 3.972 5.258c-.14-.31-.26-.638-.363-.97-.361-1.176-.586-2.671-.64-4.288m5.972 5.258a6.5 6.5 0 0 0 3.972-5.258h-2.97c-.053 1.617-.277 3.112-.64 4.287a8 8 0 0 1-.362.971M9.987 8.75H6.013c.115 3.237.96 5.75 1.987 5.75s1.872-2.513 1.987-5.75"/></svg>