<svg xmlns="http://www.w3.org/2000/svg" fill="currentColor" class="ai" viewBox="0 0 16 16"><path d="M8.005 4.412a3.585 3.585 0 0 0-3.59 3.59 3.585 3.585 0 0 0 3.59 3.591 3.585 3.585 0 0 0 3.591-3.59 3.585 3.585 0 0 0-3.59-3.591m0 5.925a2.34 2.34 0 0 1-2.334-2.335 2.337 2.337 0 0 1 2.334-2.334 2.337 2.337 0 0 1 2.335 2.334 2.34 2.34 0 0 1-2.335 2.335m4.576-6.072a.836.836 0 0 1-.838.837.838.838 0 1 1 .838-.837m2.378.85c-.053-1.122-.31-2.116-1.132-2.935-.818-.818-1.812-1.075-2.934-1.13-1.156-.066-4.622-.066-5.778 0-1.119.052-2.113.309-2.935 1.127-.821.82-1.075 1.813-1.13 2.935-.066 1.156-.066 4.622 0 5.778.052 1.122.309 2.115 1.13 2.934.822.819 1.813 1.075 2.935 1.132 1.156.065 4.622.065 5.778 0 1.122-.054 2.116-.31 2.934-1.132.82-.819 1.075-1.812 1.132-2.934.065-1.156.065-4.619 0-5.775m-1.494 7.015a2.36 2.36 0 0 1-1.331 1.332c-.922.365-3.11.281-4.129.281s-3.209.081-4.128-.281a2.36 2.36 0 0 1-1.33-1.332c-.367-.921-.282-3.109-.282-4.128 0-1.018-.081-3.209.281-4.128a2.36 2.36 0 0 1 1.331-1.331c.922-.366 3.11-.281 4.128-.281 1.02 0 3.21-.082 4.129.281a2.36 2.36 0 0 1 1.33 1.331c.367.922.282 3.11.282 4.128 0 1.02.085 3.21-.281 4.128"/></svg>