<svg xmlns="http://www.w3.org/2000/svg" fill="currentColor" class="ai" viewBox="0 0 16 16"><path d="M8.75.75a.75.75 0 0 0-1.5 0v2.5a.75.75 0 0 0 1.5 0zm0 12a.75.75 0 0 0-1.5 0v2.5a.75.75 0 0 0 1.5 0zm4.907-9.346a.75.75 0 0 0-1.06-1.06l-1.77 1.766a.75.75 0 1 0 1.061 1.06zM5.172 11.89a.75.75 0 0 0-1.061-1.062l-1.768 1.768a.75.75 0 0 0 1.06 1.06zM0 8a.75.75 0 0 1 .75-.75h2.5a.75.75 0 0 1 0 1.5H.75A.75.75 0 0 1 0 8m12 0a.75.75 0 0 1 .75-.75h2.5a.75.75 0 0 1 0 1.5h-2.5A.75.75 0 0 1 12 8M3.404 2.343a.75.75 0 0 0-1.06 1.06l1.766 1.77A.75.75 0 0 0 5.17 4.11zm8.486 8.485a.75.75 0 0 0-1.062 1.061l1.768 1.768a.75.75 0 0 0 1.06-1.06z"/></svg>