<svg xmlns="http://www.w3.org/2000/svg" fill="currentColor" class="ai" viewBox="0 0 16 16"><path d="M11.337.727A8 8 0 0 0 8 0a8 8 0 1 0 5.292 14h-2.788A6.5 6.5 0 1 1 8.636 1.53a5.99 5.99 0 0 0-2.579 5.8 4.5 4.5 0 0 1 1.512-1.617A4.506 4.506 0 0 1 12 2c.372 0 .64-.529.327-.73a8 8 0 0 0-.99-.543"/><path d="M12.171 6.755a3 3 0 0 1 2.43 1.5A2.5 2.5 0 0 1 13.5 13H8.75a2.75 2.75 0 0 1-2.095-4.53 3.5 3.5 0 0 1 5.516-1.715M13.5 9.5h-.02a1.5 1.5 0 0 0-1.877-1.197 2 2 0 0 0-3.586.934A1.25 1.25 0 0 0 8.75 11.5h4.75a1 1 0 1 0 0-2"/></svg>