<svg xmlns="http://www.w3.org/2000/svg" fill="currentColor" class="ai" viewBox="0 0 16 16"><path d="M15.071.929c-.603-.603-1.771-.54-3.224.055a8 8 0 0 1 1.519 1.082 3 3 0 0 1 .327-.051c.142-.014.236-.01.294-.002.008.058.012.152-.002.294q-.013.147-.051.327a6 6 0 0 1-.374 1.113 7 7 0 1 0-9.813 9.813c-.609.263-1.093.393-1.44.425-.142.014-.236.01-.294.002a1.4 1.4 0 0 1 .002-.294q.013-.147.051-.327a8 8 0 0 1-1.082-1.52C.389 13.3.326 14.469.929 15.072s1.771.54 3.224-.055q.554-.226 1.156-.552a7 7 0 0 0 9.155-9.155c1.072-1.98 1.363-3.624.607-4.38m-2.306 4.323c-.789 1.29-1.928 2.74-3.35 4.162-1.424 1.423-2.873 2.562-4.163 3.351a5.5 5.5 0 1 1 7.513-7.513M7.004 13.41a26 26 0 0 0 3.471-2.935 26 26 0 0 0 2.935-3.471q.09.485.09.996a5.5 5.5 0 0 1-6.496 5.41m6.968-11.469-.004-.008z"/></svg>