<svg xmlns="http://www.w3.org/2000/svg" fill="currentColor" class="ai" viewBox="0 0 16 16"><path d="m7.785 9.817-.98.049-.038-.23a13 13 0 0 0-.09-.497c-.123-.6-.355-1.167-.594-1.73l-.206-.481a28 28 0 0 1-.61-1.49c-.262-.72-.322-1.465-.094-2.213.2-.67.58-1.272 1.097-1.742.183-.168.379-.324.574-.48q.19-.15.376-.306.248-.213.489-.434l.206-.186.054-.051L7.995 0l.174.16c.129.12.255.238.39.35q.258.214.52.423.188.15.373.301c.821.673 1.356 1.514 1.49 2.581a3.3 3.3 0 0 1-.19 1.556A27 27 0 0 1 10.093 7l-.034.079c-.296.688-.592 1.377-.749 2.115-.041.197-.07.398-.096.599-.008.057-.024.08-.083.076-.235-.016-.47-.03-.717-.045h-.001l-.19-.011a92 92 0 0 0-.22-7.502 88 88 0 0 0-.218 7.505m-2.563.242a3.1 3.1 0 0 0-.44-.972c-.204-.289-.454-.524-.803-.62a1.194 1.194 0 0 0-1.522.967 2.5 2.5 0 0 0-.013.499q.006.118.007.238c-.176.062-.36.032-.539 0C1.206 10.038.694 9.625.35 9.013A2.7 2.7 0 0 1 .658 5.92a2.5 2.5 0 0 1 1.722-.911c.753-.072 1.41.17 1.996.627.507.394.887.896 1.197 1.451.38.673.647 1.405.788 2.165q.029.163.047.328.013.116.03.232c.012.079-.019.105-.092.113q-.266.03-.536.064zM2.58 6.525l-.026-.023-.16.083q-.159.079-.31.163a.13.13 0 0 1-.185-.027 6 6 0 0 0-.24-.245l-.047-.045q-.033-.032-.069-.06l-.03-.026q.003.198.04.391c.02.133.03.2.006.248-.025.05-.087.08-.21.143l-.227.118-.103.054a.2.2 0 0 0 .101.047l.097.016a5 5 0 0 0 .384.054.13.13 0 0 1 .087.13c.014.125.037.248.059.371l.026.15a.17.17 0 0 0 .075-.08l.059-.12q.049-.105.104-.208.028-.05.043-.083c.02-.042.031-.063.049-.072.017-.01.042-.005.092.004l.08.012.134.02.362.05-.483-.471zm8.004 3.51.19.025.05-.143q.044-.133.094-.261c.158-.39.375-.742.719-.998a1.203 1.203 0 0 1 1.843.53c.123.322.12.647.061.988q.076.015.154.023c.306.017.61-.045.886-.18.892-.445 1.352-1.194 1.413-2.169.055-.92-.285-1.704-1.013-2.281-.84-.666-1.768-.742-2.735-.312-.574.258-1.016.681-1.39 1.18a6.8 6.8 0 0 0-1.07 2.212q-.174.579-.22 1.18c-.004.072.019.093.085.097q.18.014.364.036.284.035.57.073m2.756-2.45a1 1 0 0 1-.095 0l.117-.12c.087-.092.17-.18.26-.26.081-.072.088-.13.034-.22a3 3 0 0 1-.14-.268l-.05-.106a.2.2 0 0 1-.023-.108l.131.067q.162.08.318.17c.091.052.151.061.23-.028q.178-.198.391-.357l-.011.079q-.023.162-.05.324v.003c-.044.243-.044.244.173.356q.19.09.361.21a1 1 0 0 1-.09.024l-.053.008q-.212.035-.424.063a.09.09 0 0 0-.092.089q-.026.18-.058.358l-.017.096c-.005.03-.012.061-.021.104l-.008.034-.026-.039-.035-.055-.056-.11q-.08-.155-.153-.313a.11.11 0 0 0-.102-.08 12 12 0 0 1-.47.073zm-5.29 6.574c.02-.105.04-.21.048-.314q.047-.663.087-1.325l.025-.408.004-.092q.002-.1.014-.2a.1.1 0 0 1 .071-.074c.238-.003.475-.003.72-.003h.205l.02.102a5.2 5.2 0 0 0 .846 2.058.16.16 0 0 1 .01.19 4.2 4.2 0 0 1-.956 1.18c-.32.282-.676.518-1.06.702a.2.2 0 0 1-.162.004 4.7 4.7 0 0 1-1.94-1.732c-.104-.166-.123-.292 0-.473a4.7 4.7 0 0 0 .767-1.951c.014-.086.04-.115.133-.109q.387.024.774.026c.086 0 .118.025.123.11l.007.23c.008.272.016.545.039.815.026.32.062.64.099.96l.042.38a.3.3 0 0 0 .022.065l.036.004zM4.65 12.59c-.411.233-.834.197-1.272.027l.007.05.011.077c.068.357.26.677.54.907.374.311.97.439 1.432.09q.22-.169.392-.387c.296-.39.506-.84.614-1.317q.029-.12.05-.242l.02-.108-1.114-.156c-.092.444-.268.825-.68 1.058m4.886-.901 1.122-.158c.096.436.283.819.691 1.045s.824.195 1.272.015q-.03.166-.08.326c-.17.473-.473.82-.969.966-.406.119-.767.02-1.078-.26-.42-.38-.652-.873-.82-1.402a5 5 0 0 1-.09-.338zm-4.04-.529c.827.177 1.668.208 2.51.208h.13q.128.003.257 0a11 11 0 0 0 2.02-.188q.356-.084.697-.215c.08-.028.185-.083.162-.18a.34.34 0 0 0-.17-.176 2 2 0 0 0-.4-.149c-.79-.198-1.598-.246-2.408-.26a13.4 13.4 0 0 0-2.245.116q-.505.085-.998.223a1 1 0 0 0-.287.163.103.103 0 0 0-.005.165q.05.06.123.093.3.12.614.2m5.352-.394v.049q-.122.042-.25.065-.171.016-.341.034c-.341.035-.682.07-1.023.089q-.753.041-1.507.033c-.767-.01-1.535-.035-2.295-.155-.064-.01-.128-.028-.192-.045l-.091-.024v-.046a1 1 0 0 1 .18-.058q.225-.023.449-.048c.41-.044.819-.089 1.23-.112q1.462-.075 2.92.061c.207.02.414.052.62.083l.136.021q.083.02.164.053"/></svg>