<svg xmlns="http://www.w3.org/2000/svg" fill="currentColor" class="ai" viewBox="0 0 16 16"><path d="M8 0a.75.75 0 0 1 .75.75v.83L9.752.69a.75.75 0 1 1 .996 1.12L8.75 3.588V6.7l2.697-1.557.54-2.619a.75.75 0 0 1 1.468.303l-.27 1.312.719-.415a.75.75 0 0 1 .75 1.3l-.719.414 1.272.423a.75.75 0 1 1-.473 1.423l-2.537-.842L9.5 8l2.697 1.557 2.537-.842a.75.75 0 1 1 .473 1.423l-1.272.422.719.415a.75.75 0 1 1-.75 1.3l-.719-.415.27 1.312a.75.75 0 1 1-1.469.303l-.539-2.619L8.75 9.3v3.114l1.998 1.776a.75.75 0 0 1-.996 1.122l-1.002-.89v.829a.75.75 0 0 1-1.5 0v-.83l-1.002.89a.75.75 0 0 1-.996-1.12l1.998-1.777V9.3l-2.697 1.557-.539 2.619a.75.75 0 1 1-1.47-.303l.271-1.312-.719.415a.75.75 0 0 1-.75-1.3l.719-.415-1.272-.422a.75.75 0 1 1 .473-1.423l2.537.842L6.5 8 3.803 6.443l-2.537.842a.75.75 0 1 1-.473-1.423l1.272-.423-.719-.414a.75.75 0 1 1 .75-1.3l.719.415-.27-1.312a.75.75 0 0 1 1.469-.303l.54 2.619L7.25 6.7V3.587L5.252 1.81A.75.75 0 0 1 6.248.689l1.002.89V.75A.75.75 0 0 1 8 0"/></svg>