<svg xmlns="http://www.w3.org/2000/svg" fill="currentColor" class="ai" viewBox="0 0 16 16"><path d="M3.75 2.5c-.69 0-1.25.56-1.25 1.25a.75.75 0 0 1-1.5 0A2.75 2.75 0 0 1 3.75 1a.75.75 0 0 1 0 1.5M6 1.75A.75.75 0 0 1 6.75 1h2.5a.75.75 0 0 1 0 1.5h-2.5A.75.75 0 0 1 6 1.75m5.5 0a.75.75 0 0 1 .75-.75A2.75 2.75 0 0 1 15 3.75a.75.75 0 0 1-1.5 0c0-.69-.56-1.25-1.25-1.25a.75.75 0 0 1-.75-.75M1.75 6a.75.75 0 0 1 .75.75v2.5a.75.75 0 0 1-1.5 0v-2.5A.75.75 0 0 1 1.75 6m12.5 0a.75.75 0 0 1 .75.75v2.5a.75.75 0 0 1-1.5 0v-2.5a.75.75 0 0 1 .75-.75m-12.5 5.5a.75.75 0 0 1 .75.75c0 .69.56 1.25 1.25 1.25a.75.75 0 0 1 0 1.5A2.75 2.75 0 0 1 1 12.25a.75.75 0 0 1 .75-.75m12.5 0a.75.75 0 0 1 .75.75A2.75 2.75 0 0 1 12.25 15a.75.75 0 0 1 0-1.5c.69 0 1.25-.56 1.25-1.25a.75.75 0 0 1 .75-.75M6 14.25a.75.75 0 0 1 .75-.75h2.5a.75.75 0 0 1 0 1.5h-2.5a.75.75 0 0 1-.75-.75"/></svg>