<svg xmlns="http://www.w3.org/2000/svg" fill="currentColor" class="ai" viewBox="0 0 16 16"><path fill-rule="evenodd" d="M.337 7.573a.744.744 0 0 0 .051 1.276l2.87 1.563.517-1.827-1.164-2.5zm8.037-5.261.415.402 2.6.148-.047-1.147a.744.744 0 0 0-1.152-.592zm3.422 10.607-1.895.51-.297.438 1.128.614a.744.744 0 0 0 1.1-.683zm-6.444-9.9-2.473-.14a.744.744 0 0 0-.717 1.057l1.822 3.913zm1.6 11.204.18.39a.744.744 0 0 0 1.292.103l.738-1.088zm6.532-6.969 1.727-2.546a.744.744 0 0 0-.574-1.16L9.34 3.245zM7.307 1.976a.744.744 0 0 0-1.234.332L2.863 13.64a.744.744 0 0 0 .91.922l11.676-3.144a.744.744 0 0 0 .324-1.254z"/></svg>