<svg xmlns="http://www.w3.org/2000/svg" fill="currentColor" class="ai" viewBox="0 0 16 16"><path d="M7.25.75a.75.75 0 0 1 1.5 0v.5a.75.75 0 0 1-1.5 0zm-6.5 8a.75.75 0 0 1 0-1.5h.5a.75.75 0 0 1 0 1.5zm14.5-1.5h-.128q.099.123.187.253.38.231.69.546L16 8a.75.75 0 0 0-.75-.75M8 3a5 5 0 0 1 4.456 2.73 4.5 4.5 0 0 0-2.646-.726A3.5 3.5 0 0 0 5.022 9.84a3.73 3.73 0 0 0 .688 2.606A5 5 0 0 1 8 3m.75 12.25a.75.75 0 0 1-1.5 0v-.5a.75.75 0 0 1 1.5 0zM2.343 3.404a.75.75 0 1 1 1.06-1.06l.354.353a.75.75 0 0 1-1.06 1.06zm1.061 10.253a.75.75 0 0 1-1.06-1.06l.353-.354a.75.75 0 1 1 1.06 1.06zm9.899-9.9a.75.75 0 0 1-1.06-1.06l.353-.354a.75.75 0 0 1 1.06 1.06z"/><path d="M12.171 6.755a3 3 0 0 1 2.43 1.5A2.5 2.5 0 0 1 13.5 13H8.75a2.75 2.75 0 0 1-2.095-4.53 3.5 3.5 0 0 1 5.516-1.715M13.5 9.5h-.02a1.5 1.5 0 0 0-1.877-1.197 2 2 0 0 0-3.586.934A1.25 1.25 0 0 0 8.75 11.5h4.75a1 1 0 1 0 0-2"/></svg>