<svg xmlns="http://www.w3.org/2000/svg" fill="currentColor" class="ai" viewBox="0 0 16 16"><path d="M7.25 1.75a.75.75 0 0 1 1.5 0v.5a.75.75 0 0 1-1.5 0zm-6.5 8a.75.75 0 0 1 0-1.5h.5a.75.75 0 0 1 0 1.5zm14 0a.75.75 0 0 1 0-1.5h.5a.75.75 0 0 1 0 1.5zM2.343 4.404a.75.75 0 1 1 1.06-1.06l.354.353a.75.75 0 0 1-1.06 1.06zm10.96.353a.75.75 0 0 1-1.06-1.06l.353-.354a.75.75 0 0 1 1.06 1.06zM11.5 9a3.5 3.5 0 0 1-.145 1H12.9q.1-.486.1-1a5 5 0 1 0-9.9 1h1.545A3.5 3.5 0 1 1 11.5 9"/><path d="M8.53 8.72a.75.75 0 0 0-1.06 0L5.19 11H.75a.75.75 0 0 0 0 1.5H5.5a.75.75 0 0 0 .53-.22L8 10.31l1.97 1.97c.14.141.331.22.53.22h4.75a.75.75 0 0 0 0-1.5h-4.44z"/></svg>