<svg xmlns="http://www.w3.org/2000/svg" fill="currentColor" class="ai" viewBox="0 0 16 16"><path d="M11.36 7.366c.068.028.13.059.196.087.913.44 1.582 1.1 1.932 1.919.49 1.14.537 2.994-.947 4.475-1.132 1.131-2.51 1.64-4.457 1.656h-.009c-2.194-.015-3.878-.753-5.012-2.194-1.01-1.28-1.529-3.065-1.547-5.3v-.015c.015-2.235.534-4.019 1.543-5.3C4.194 1.254 5.881.516 8.075.5h.01c2.196.016 3.903.75 5.071 2.184q.864 1.066 1.269 2.553l-1.263.338c-.221-.806-.556-1.494-1.006-2.044-.912-1.118-2.281-1.694-4.078-1.706-1.781.016-3.128.588-4.006 1.7C3.253 4.565 2.828 6.072 2.812 8c.016 1.928.441 3.434 1.26 4.478.875 1.113 2.225 1.685 4.006 1.7 1.606-.012 2.669-.394 3.553-1.278 1.01-1.006.99-2.244.669-2.997-.19-.444-.534-.812-.997-1.09-.116.84-.369 1.509-.772 2.024Q9.73 11.86 8.26 11.942c-.737.04-1.447-.138-1.997-.5a2.33 2.33 0 0 1-1.071-1.854c-.079-1.509 1.115-2.593 2.975-2.7a8.3 8.3 0 0 1 1.85.088q-.114-.695-.457-1.1c-.312-.366-.8-.553-1.443-.556h-.022c-.519 0-1.219.144-1.666.822l-1.075-.738c.6-.91 1.572-1.41 2.744-1.41h.025c1.956.013 3.122 1.235 3.24 3.366l-.006.007zm-4.876 2.15c.041.784.888 1.15 1.707 1.103.8-.044 1.706-.357 1.859-2.288a6.4 6.4 0 0 0-1.356-.137q-.225 0-.45.012c-1.34.075-1.788.725-1.756 1.306z"/></svg>