<svg xmlns="http://www.w3.org/2000/svg" fill="currentColor" class="ai" viewBox="0 0 16 16"><path d="M5.484.902A.75.75 0 1 0 4.016.598L3.726 2H2.75a.75.75 0 0 0 0 1.5h.665L2.64 7.25h-.89a.75.75 0 0 0 0 1.5h.579l-.776 3.75H.75a.75.75 0 0 0 0 1.5h.493l-.227 1.098a.75.75 0 1 0 1.468.304L2.774 14h10.452l.29 1.402a.75.75 0 0 0 1.469-.304L14.757 14h.493a.75.75 0 0 0 0-1.5h-.803l-.776-3.75h.579a.75.75 0 0 0 0-1.5h-.89l-.775-3.75h.665a.75.75 0 0 0 0-1.5h-.976l-.29-1.402a.75.75 0 0 0-1.468.304L10.743 2H5.257zM4.947 3.5h6.106l.776 3.75H4.171zm7.192 5.25.776 3.75h-9.83l.776-3.75z"/></svg>