<svg xmlns="http://www.w3.org/2000/svg" fill="currentColor" class="ai" viewBox="0 0 16 16"><path d="M7.25 12H3a3 3 0 0 1-1.615-5.529 3 3 0 0 1 2.988-4.448C5.009.828 6.394 0 8 0c1.846 0 3.4 1.094 3.861 2.582q.307-.08.639-.082a2.5 2.5 0 0 1 2.05 3.931A3.01 3.01 0 0 1 16 9a3 3 0 0 1-3 3H8.75v3.25a.75.75 0 0 1-1.5 0zM2.194 7.735A1.5 1.5 0 0 0 3 10.5h4.25V9.31L5.47 7.53a.75.75 0 0 1 1.06-1.06l.72.72V6a.75.75 0 0 1 1.5 0v2.19l.72-.72a.75.75 0 1 1 1.06 1.06l-1.78 1.78v.19H13a1.5 1.5 0 0 0 .774-2.785l-1.372-.83.919-1.314a1 1 0 0 0-1.078-1.539l-1.39.367-.425-1.373C10.19 2.256 9.288 1.5 8 1.5c-1.108 0-1.953.57-2.304 1.228l-.484.91-1.024-.126a1.5 1.5 0 0 0-1.497 2.223l.697 1.235z"/></svg>