<svg xmlns="http://www.w3.org/2000/svg" fill="currentColor" class="ai" viewBox="0 0 16 16"><path d="M6.494 1.82a1.75 1.75 0 0 1 3.012 0l.669 1.129a.75.75 0 1 1-1.29.764l-.67-1.129a.25.25 0 0 0-.43 0l-.67 1.13a.75.75 0 1 1-1.29-.765zl.613.364zM5.07 5.696a.75.75 0 0 1 .263 1.027l-1.34 2.259a.75.75 0 1 1-1.29-.764L4.04 5.96a.75.75 0 0 1 1.028-.263m5.862 0a.75.75 0 0 1 1.028.263l1.338 2.258a.75.75 0 1 1-1.29.764l-1.338-2.258a.75.75 0 0 1 .262-1.027m-8.985 5.269a.75.75 0 0 1 .263 1.027l-.67 1.13a.25.25 0 0 0 .216.377h1.338a.75.75 0 0 1 0 1.5H1.755C.399 15-.442 13.524.249 12.358l.67-1.13a.75.75 0 0 1 1.027-.262m12.108 0a.75.75 0 0 1 1.027.263l.67 1.129C16.44 13.524 15.6 15 14.245 15h-1.338a.75.75 0 0 1 0-1.5h1.338a.25.25 0 0 0 .215-.377l-.669-1.13a.75.75 0 0 1 .263-1.027M5.912 14.25a.75.75 0 0 1 .75-.75h2.676a.75.75 0 0 1 0 1.5H6.662a.75.75 0 0 1-.75-.75"/></svg>