<svg xmlns="http://www.w3.org/2000/svg" fill="currentColor" class="ai" viewBox="0 0 16 16"><path d="M10.75 2h1.603a1.75 1.75 0 0 1 1.596 1.032l1.897 4.215c.101.225.154.47.154.718V11.5a1.75 1.75 0 0 1-1.75 1.75h-.364a2.501 2.501 0 0 1-4.772 0H6.886a2.501 2.501 0 0 1-4.772 0H1.75A1.75 1.75 0 0 1 0 11.5V8.75C0 7.784.784 7 1.75 7H9V3.75C9 2.784 9.784 2 10.75 2m3.136 9.75h.364a.25.25 0 0 0 .25-.25v-3H1.75a.25.25 0 0 0-.25.25v2.75c0 .138.112.25.25.25h.364a2.501 2.501 0 0 1 4.772 0h2.228a2.501 2.501 0 0 1 4.772 0M14.09 7l-1.509-3.353a.25.25 0 0 0-.228-.147H10.75a.25.25 0 0 0-.25.25V7zM4.5 13.5a1 1 0 1 0 0-2 1 1 0 0 0 0 2m7 0a1 1 0 1 0 0-2 1 1 0 0 0 0 2"/></svg>