<svg xmlns="http://www.w3.org/2000/svg" fill="currentColor" class="ai" viewBox="0 0 16 16"><path d="M11.226.214a.75.75 0 0 1 .86-.135l3.5 1.75A.75.75 0 0 1 16 2.5v11a.75.75 0 0 1-.415.67l-3.5 1.75a.75.75 0 0 1-.86-.134L6.574 11.24 4.25 13.31a.75.75 0 0 1-.787.133l-3-1.25A.75.75 0 0 1 0 11.5v-7a.75.75 0 0 1 .462-.692l3-1.25a.75.75 0 0 1 .787.132l2.324 2.071zM7.695 5.762l1.384 1.233L11 5.283V2.532zM12.5 1.964v12.073l2-1V2.964zM11 13.468v-2.751L3.603 4.124l-1.518.632zm0-4.76V7.292L10.207 8zM1.5 6.281v3.436L3 8.252v-.504zm2.831 2.767-2.246 2.195 1.518.632 1.894-1.688z"/></svg>